solid Exported from Blender-3.1.2
facet normal 0.000000 -1.000000 0.000000
outer loop
vertex 1.000000 -1.000000 -1.000000
vertex 1.000000 -1.000000 0.423198
vertex -1.000000 -1.000000 0.423198
endloop
endfacet
facet normal 0.000000 -1.000000 0.000000
outer loop
vertex 1.000000 -1.000000 -1.000000
vertex -1.000000 -1.000000 0.423198
vertex -1.000000 -1.000000 -1.000000
endloop
endfacet
facet normal -1.000000 0.000000 0.000000
outer loop
vertex -1.000000 -1.000000 -1.000000
vertex -1.000000 -1.000000 0.423198
vertex -1.000000 1.000000 0.423198
endloop
endfacet
facet normal -1.000000 0.000000 0.000000
outer loop
vertex -1.000000 -1.000000 -1.000000
vertex -1.000000 1.000000 0.423198
vertex -1.000000 1.000000 -1.000000
endloop
endfacet
facet normal 0.000000 0.000000 -1.000000
outer loop
vertex -1.000000 1.000000 -1.000000
vertex 1.000000 1.000000 -1.000000
vertex 1.000000 -1.000000 -1.000000
endloop
endfacet
facet normal 0.000000 0.000000 -1.000000
outer loop
vertex -1.000000 1.000000 -1.000000
vertex 1.000000 -1.000000 -1.000000
vertex -1.000000 -1.000000 -1.000000
endloop
endfacet
facet normal 0.000000 0.000000 1.000000
outer loop
vertex 0.423198 0.423198 1.000000
vertex -0.423198 0.423198 1.000000
vertex -0.423198 -0.423198 1.000000
endloop
endfacet
facet normal 0.000000 0.000000 1.000000
outer loop
vertex 0.423198 0.423198 1.000000
vertex -0.423198 -0.423198 1.000000
vertex 0.423198 -0.423198 1.000000
endloop
endfacet
facet normal 1.000000 0.000000 0.000000
outer loop
vertex 1.000000 1.000000 -1.000000
vertex 1.000000 1.000000 0.423198
vertex 1.000000 -1.000000 0.423198
endloop
endfacet
facet normal 1.000000 0.000000 0.000000
outer loop
vertex 1.000000 1.000000 -1.000000
vertex 1.000000 -1.000000 0.423198
vertex 1.000000 -1.000000 -1.000000
endloop
endfacet
facet normal 0.000000 -0.707107 0.707107
outer loop
vertex 0.423198 -0.423198 1.000000
vertex -0.423198 -0.423198 1.000000
vertex -1.000000 -1.000000 0.423198
endloop
endfacet
facet normal 0.000000 -0.707107 0.707107
outer loop
vertex 0.423198 -0.423198 1.000000
vertex -1.000000 -1.000000 0.423198
vertex 1.000000 -1.000000 0.423198
endloop
endfacet
facet normal 0.707107 0.000000 0.707107
outer loop
vertex 0.423198 0.423198 1.000000
vertex 0.423198 -0.423198 1.000000
vertex 1.000000 -1.000000 0.423198
endloop
endfacet
facet normal 0.707107 0.000000 0.707107
outer loop
vertex 0.423198 0.423198 1.000000
vertex 1.000000 -1.000000 0.423198
vertex 1.000000 1.000000 0.423198
endloop
endfacet
facet normal -0.707107 0.000000 0.707107
outer loop
vertex -0.423198 -0.423198 1.000000
vertex -0.423198 0.423198 1.000000
vertex -1.000000 1.000000 0.423198
endloop
endfacet
facet normal -0.707107 0.000000 0.707107
outer loop
vertex -0.423198 -0.423198 1.000000
vertex -1.000000 1.000000 0.423198
vertex -1.000000 -1.000000 0.423198
endloop
endfacet
facet normal 0.000000 0.707107 0.707107
outer loop
vertex -0.423198 0.423198 1.000000
vertex 0.423198 0.423198 1.000000
vertex 1.000000 1.000000 0.423198
endloop
endfacet
facet normal 0.000000 0.707107 0.707107
outer loop
vertex -0.423198 0.423198 1.000000
vertex 1.000000 1.000000 0.423198
vertex -1.000000 1.000000 0.423198
endloop
endfacet
facet normal 0.000000 1.000000 0.000000
outer loop
vertex -1.000000 1.000000 -1.000000
vertex -1.000000 1.000000 0.423198
vertex 1.000000 1.000000 0.423198
endloop
endfacet
facet normal 0.000000 1.000000 0.000000
outer loop
vertex -1.000000 1.000000 -1.000000
vertex 1.000000 1.000000 0.423198
vertex 1.000000 1.000000 -1.000000
endloop
endfacet
endsolid Exported from Blender-3.1.2
