solid Exported from Blender-3.1.2
facet normal 0.100857 0.994901 0.000000
outer loop
vertex 0.300000 0.457006 0.000000
vertex 0.300000 0.457006 2.948842
vertex 0.463020 0.440480 2.948842
endloop
endfacet
facet normal 0.100857 0.994901 0.000000
outer loop
vertex 0.300000 0.457006 0.000000
vertex 0.463020 0.440480 2.948842
vertex 0.463020 0.440480 0.000000
endloop
endfacet
facet normal 0.298036 0.954555 0.000000
outer loop
vertex 0.463020 0.440480 0.000000
vertex 0.463020 0.440480 2.948842
vertex 0.619776 0.391537 2.948842
endloop
endfacet
facet normal 0.298035 0.954555 0.000000
outer loop
vertex 0.463020 0.440480 0.000000
vertex 0.619776 0.391537 2.948842
vertex 0.619776 0.391537 0.000000
endloop
endfacet
facet normal 0.482023 0.876159 0.000000
outer loop
vertex 0.619776 0.391537 0.000000
vertex 0.619776 0.391537 2.948842
vertex 0.764243 0.312058 2.948842
endloop
endfacet
facet normal 0.482023 0.876159 0.000000
outer loop
vertex 0.619776 0.391537 0.000000
vertex 0.764243 0.312058 2.948842
vertex 0.764243 0.312058 0.000000
endloop
endfacet
facet normal 0.645294 0.763935 0.000000
outer loop
vertex 0.764243 0.312058 0.000000
vertex 0.764243 0.312058 2.948842
vertex 0.890869 0.205097 2.948842
endloop
endfacet
facet normal 0.645294 0.763935 0.000000
outer loop
vertex 0.764243 0.312058 0.000000
vertex 0.890869 0.205097 2.948842
vertex 0.890869 0.205097 0.000000
endloop
endfacet
facet normal 0.781881 0.623428 0.000000
outer loop
vertex 0.890869 0.205097 0.000000
vertex 0.890869 0.205097 2.948842
vertex 0.994789 0.074765 2.948842
endloop
endfacet
facet normal 0.781881 0.623427 0.000000
outer loop
vertex 0.890869 0.205097 0.000000
vertex 0.994789 0.074765 2.948842
vertex 0.994789 0.074765 0.000000
endloop
endfacet
facet normal 0.887466 0.460873 0.000000
outer loop
vertex 0.994789 0.074765 0.000000
vertex 0.994789 0.074765 2.948842
vertex 1.072008 -0.073930 2.948842
endloop
endfacet
facet normal 0.887467 0.460872 0.000000
outer loop
vertex 0.994789 0.074765 0.000000
vertex 1.072008 -0.073930 2.948842
vertex 1.072008 -0.073930 0.000000
endloop
endfacet
facet normal 0.959208 0.282700 0.000000
outer loop
vertex 1.072008 -0.073930 0.000000
vertex 1.072008 -0.073930 2.948842
vertex 1.119559 -0.235273 2.948842
endloop
endfacet
facet normal 0.959208 0.282700 0.000000
outer loop
vertex 1.072008 -0.073930 0.000000
vertex 1.119559 -0.235273 2.948842
vertex 1.119559 -0.235273 0.000000
endloop
endfacet
facet normal 0.995453 0.095255 0.000000
outer loop
vertex 1.119559 -0.235273 0.000000
vertex 1.119559 -0.235273 2.948842
vertex 1.135615 -0.403065 2.948842
endloop
endfacet
facet normal 0.995453 0.095256 0.000000
outer loop
vertex 1.119559 -0.235273 0.000000
vertex 1.135615 -0.403065 2.948842
vertex 1.135615 -0.403065 0.000000
endloop
endfacet
facet normal 0.995453 -0.095256 0.000000
outer loop
vertex 1.135615 -0.403065 0.000000
vertex 1.135615 -0.403065 2.948842
vertex 1.119559 -0.570856 2.948842
endloop
endfacet
facet normal 0.995453 -0.095255 0.000000
outer loop
vertex 1.135615 -0.403065 0.000000
vertex 1.119559 -0.570856 2.948842
vertex 1.119559 -0.570856 0.000000
endloop
endfacet
facet normal 0.959209 -0.282698 0.000000
outer loop
vertex 1.119559 -0.570856 0.000000
vertex 1.119559 -0.570856 2.948842
vertex 1.072008 -0.732200 2.948842
endloop
endfacet
facet normal 0.959208 -0.282700 0.000000
outer loop
vertex 1.119559 -0.570856 0.000000
vertex 1.072008 -0.732200 2.948842
vertex 1.072008 -0.732200 0.000000
endloop
endfacet
facet normal 0.887466 -0.460873 0.000000
outer loop
vertex 1.072008 -0.732200 0.000000
vertex 1.072008 -0.732200 2.948842
vertex 0.994789 -0.880894 2.948842
endloop
endfacet
facet normal 0.887466 -0.460872 0.000000
outer loop
vertex 1.072008 -0.732200 0.000000
vertex 0.994789 -0.880894 2.948842
vertex 0.994789 -0.880894 0.000000
endloop
endfacet
facet normal 0.781881 -0.623428 0.000000
outer loop
vertex 0.994789 -0.880894 0.000000
vertex 0.994789 -0.880894 2.948842
vertex 0.890869 -1.011227 2.948842
endloop
endfacet
facet normal 0.781881 -0.623428 0.000000
outer loop
vertex 0.994789 -0.880894 0.000000
vertex 0.890869 -1.011227 2.948842
vertex 0.890869 -1.011227 0.000000
endloop
endfacet
facet normal 0.645294 -0.763934 0.000000
outer loop
vertex 0.890869 -1.011227 0.000000
vertex 0.890869 -1.011227 2.948842
vertex 0.764243 -1.118187 2.948842
endloop
endfacet
facet normal 0.645294 -0.763934 0.000000
outer loop
vertex 0.890869 -1.011227 0.000000
vertex 0.764243 -1.118187 2.948842
vertex 0.764243 -1.118187 0.000000
endloop
endfacet
facet normal 0.482022 -0.876159 0.000000
outer loop
vertex 0.764243 -1.118187 0.000000
vertex 0.764243 -1.118187 2.948842
vertex 0.619776 -1.197666 2.948842
endloop
endfacet
facet normal 0.482022 -0.876159 0.000000
outer loop
vertex 0.764243 -1.118187 0.000000
vertex 0.619776 -1.197666 2.948842
vertex 0.619776 -1.197666 0.000000
endloop
endfacet
facet normal 0.298036 -0.954555 0.000000
outer loop
vertex 0.619776 -1.197666 0.000000
vertex 0.619776 -1.197666 2.948842
vertex 0.463020 -1.246609 2.948842
endloop
endfacet
facet normal 0.298036 -0.954555 0.000000
outer loop
vertex 0.619776 -1.197666 0.000000
vertex 0.463020 -1.246609 2.948842
vertex 0.463020 -1.246609 0.000000
endloop
endfacet
facet normal 0.100857 -0.994901 0.000000
outer loop
vertex 0.463020 -1.246609 0.000000
vertex 0.463020 -1.246609 2.948842
vertex 0.300000 -1.263135 2.948842
endloop
endfacet
facet normal 0.100857 -0.994901 0.000000
outer loop
vertex 0.463020 -1.246609 0.000000
vertex 0.300000 -1.263135 2.948842
vertex 0.300000 -1.263135 0.000000
endloop
endfacet
facet normal -0.100857 -0.994901 0.000000
outer loop
vertex 0.300000 -1.263135 0.000000
vertex 0.300000 -1.263135 2.948842
vertex 0.136980 -1.246609 2.948842
endloop
endfacet
facet normal -0.100857 -0.994901 0.000000
outer loop
vertex 0.300000 -1.263135 0.000000
vertex 0.136980 -1.246609 2.948842
vertex 0.136980 -1.246609 0.000000
endloop
endfacet
facet normal -0.298036 -0.954555 0.000000
outer loop
vertex 0.136980 -1.246609 0.000000
vertex 0.136980 -1.246609 2.948842
vertex -0.019776 -1.197666 2.948842
endloop
endfacet
facet normal -0.298036 -0.954555 0.000000
outer loop
vertex 0.136980 -1.246609 0.000000
vertex -0.019776 -1.197666 2.948842
vertex -0.019776 -1.197666 0.000000
endloop
endfacet
facet normal -0.482023 -0.876159 0.000000
outer loop
vertex -0.019776 -1.197666 0.000000
vertex -0.019776 -1.197666 2.948842
vertex -0.164243 -1.118187 2.948842
endloop
endfacet
facet normal -0.482023 -0.876159 0.000000
outer loop
vertex -0.019776 -1.197666 0.000000
vertex -0.164243 -1.118187 2.948842
vertex -0.164243 -1.118187 0.000000
endloop
endfacet
facet normal -0.645293 -0.763935 0.000000
outer loop
vertex -0.164243 -1.118187 0.000000
vertex -0.164243 -1.118187 2.948842
vertex -0.290869 -1.011227 2.948842
endloop
endfacet
facet normal -0.645293 -0.763935 0.000000
outer loop
vertex -0.164243 -1.118187 0.000000
vertex -0.290869 -1.011227 2.948842
vertex -0.290869 -1.011227 0.000000
endloop
endfacet
facet normal -0.781881 -0.623428 0.000000
outer loop
vertex -0.290869 -1.011227 0.000000
vertex -0.290869 -1.011227 2.948842
vertex -0.394789 -0.880895 2.948842
endloop
endfacet
facet normal -0.781881 -0.623428 0.000000
outer loop
vertex -0.290869 -1.011227 0.000000
vertex -0.394789 -0.880895 2.948842
vertex -0.394789 -0.880895 0.000000
endloop
endfacet
facet normal -0.887466 -0.460873 0.000000
outer loop
vertex -0.394789 -0.880895 0.000000
vertex -0.394789 -0.880895 2.948842
vertex -0.472008 -0.732200 2.948842
endloop
endfacet
facet normal -0.887466 -0.460873 0.000000
outer loop
vertex -0.394789 -0.880895 0.000000
vertex -0.472008 -0.732200 2.948842
vertex -0.472008 -0.732200 0.000000
endloop
endfacet
facet normal -0.959209 -0.282699 0.000000
outer loop
vertex -0.472008 -0.732200 0.000000
vertex -0.472008 -0.732200 2.948842
vertex -0.519559 -0.570856 2.948842
endloop
endfacet
facet normal -0.959209 -0.282699 0.000000
outer loop
vertex -0.472008 -0.732200 0.000000
vertex -0.519559 -0.570856 2.948842
vertex -0.519559 -0.570856 0.000000
endloop
endfacet
facet normal -0.995453 -0.095255 0.000000
outer loop
vertex -0.519559 -0.570856 0.000000
vertex -0.519559 -0.570856 2.948842
vertex -0.535615 -0.403065 2.948842
endloop
endfacet
facet normal -0.995453 -0.095256 0.000000
outer loop
vertex -0.519559 -0.570856 0.000000
vertex -0.535615 -0.403065 2.948842
vertex -0.535615 -0.403065 0.000000
endloop
endfacet
facet normal -0.995453 0.095256 0.000000
outer loop
vertex -0.535615 -0.403065 0.000000
vertex -0.535615 -0.403065 2.948842
vertex -0.519559 -0.235273 2.948842
endloop
endfacet
facet normal -0.995453 0.095255 0.000000
outer loop
vertex -0.535615 -0.403065 0.000000
vertex -0.519559 -0.235273 2.948842
vertex -0.519559 -0.235273 0.000000
endloop
endfacet
facet normal -0.959209 0.282699 0.000000
outer loop
vertex -0.519559 -0.235273 0.000000
vertex -0.519559 -0.235273 2.948842
vertex -0.472008 -0.073930 2.948842
endloop
endfacet
facet normal -0.959208 0.282700 0.000000
outer loop
vertex -0.519559 -0.235273 0.000000
vertex -0.472008 -0.073930 2.948842
vertex -0.472008 -0.073930 0.000000
endloop
endfacet
facet normal -0.887466 0.460872 0.000000
outer loop
vertex -0.472008 -0.073930 0.000000
vertex -0.472008 -0.073930 2.948842
vertex -0.394789 0.074765 2.948842
endloop
endfacet
facet normal -0.887466 0.460873 0.000000
outer loop
vertex -0.472008 -0.073930 0.000000
vertex -0.394789 0.074765 2.948842
vertex -0.394789 0.074765 0.000000
endloop
endfacet
facet normal -0.781881 0.623427 0.000000
outer loop
vertex -0.394789 0.074765 0.000000
vertex -0.394789 0.074765 2.948842
vertex -0.290869 0.205097 2.948842
endloop
endfacet
facet normal -0.781881 0.623427 0.000000
outer loop
vertex -0.394789 0.074765 0.000000
vertex -0.290869 0.205097 2.948842
vertex -0.290869 0.205097 0.000000
endloop
endfacet
facet normal -0.645294 0.763935 0.000000
outer loop
vertex -0.290869 0.205097 0.000000
vertex -0.290869 0.205097 2.948842
vertex -0.164243 0.312058 2.948842
endloop
endfacet
facet normal -0.645293 0.763935 0.000000
outer loop
vertex -0.290869 0.205097 0.000000
vertex -0.164243 0.312058 2.948842
vertex -0.164243 0.312058 0.000000
endloop
endfacet
facet normal -0.482023 0.876159 0.000000
outer loop
vertex -0.164243 0.312058 0.000000
vertex -0.164243 0.312058 2.948842
vertex -0.019776 0.391537 2.948842
endloop
endfacet
facet normal -0.482023 0.876159 0.000000
outer loop
vertex -0.164243 0.312058 0.000000
vertex -0.019776 0.391537 2.948842
vertex -0.019776 0.391537 0.000000
endloop
endfacet
facet normal 0.482024 0.876158 0.000000
outer loop
vertex 0.460652 -0.129626 2.948842
vertex 0.409664 -0.101574 2.948842
vertex 0.409664 -0.101574 3.574248
endloop
endfacet
facet normal 0.482022 0.876159 0.000000
outer loop
vertex 0.460652 -0.129626 2.948842
vertex 0.409664 -0.101574 3.574248
vertex 0.460652 -0.129626 3.574248
endloop
endfacet
facet normal -0.298035 0.954555 0.000000
outer loop
vertex -0.019776 0.391537 0.000000
vertex -0.019776 0.391537 2.948842
vertex 0.136980 0.440480 2.948842
endloop
endfacet
facet normal -0.298035 0.954555 0.000000
outer loop
vertex -0.019776 0.391537 0.000000
vertex 0.136980 0.440480 2.948842
vertex 0.136980 0.440480 0.000000
endloop
endfacet
facet normal -0.100857 0.994901 0.000000
outer loop
vertex 0.136980 0.440480 0.000000
vertex 0.136980 0.440480 2.948842
vertex 0.300000 0.457006 2.948842
endloop
endfacet
facet normal -0.100857 0.994901 0.000000
outer loop
vertex 0.136980 0.440480 0.000000
vertex 0.300000 0.457006 2.948842
vertex 0.300000 0.457006 0.000000
endloop
endfacet
facet normal 0.000000 0.000000 -1.000000
outer loop
vertex 0.136980 0.440480 0.000000
vertex 0.300000 0.457006 0.000000
vertex 0.463020 0.440480 0.000000
endloop
endfacet
facet normal 0.000000 0.000000 -1.000000
outer loop
vertex 0.463020 0.440480 0.000000
vertex 0.619776 0.391537 0.000000
vertex 0.764243 0.312058 0.000000
endloop
endfacet
facet normal 0.000000 0.000000 -1.000000
outer loop
vertex 0.764243 0.312058 0.000000
vertex 0.890869 0.205097 0.000000
vertex 0.994789 0.074765 0.000000
endloop
endfacet
facet normal 0.000000 0.000000 -1.000000
outer loop
vertex 0.994789 0.074765 0.000000
vertex 1.072008 -0.073930 0.000000
vertex 1.119559 -0.235273 0.000000
endloop
endfacet
facet normal 0.000000 0.000000 -1.000000
outer loop
vertex 1.119559 -0.235273 0.000000
vertex 1.135615 -0.403065 0.000000
vertex 1.119559 -0.570856 0.000000
endloop
endfacet
facet normal 0.000000 0.000000 -1.000000
outer loop
vertex 1.119559 -0.570856 0.000000
vertex 1.072008 -0.732200 0.000000
vertex 0.994789 -0.880894 0.000000
endloop
endfacet
facet normal 0.000000 0.000000 -1.000000
outer loop
vertex 0.994789 -0.880894 0.000000
vertex 0.890869 -1.011227 0.000000
vertex 0.764243 -1.118187 0.000000
endloop
endfacet
facet normal 0.000000 0.000000 -1.000000
outer loop
vertex 0.764243 -1.118187 0.000000
vertex 0.619776 -1.197666 0.000000
vertex 0.463020 -1.246609 0.000000
endloop
endfacet
facet normal 0.000000 0.000000 -1.000000
outer loop
vertex 0.463020 -1.246609 0.000000
vertex 0.300000 -1.263135 0.000000
vertex 0.136980 -1.246609 0.000000
endloop
endfacet
facet normal 0.000000 0.000000 -1.000000
outer loop
vertex 0.136980 -1.246609 0.000000
vertex -0.019776 -1.197666 0.000000
vertex -0.164243 -1.118187 0.000000
endloop
endfacet
facet normal 0.000000 0.000000 -1.000000
outer loop
vertex -0.164243 -1.118187 0.000000
vertex -0.290869 -1.011227 0.000000
vertex -0.394789 -0.880895 0.000000
endloop
endfacet
facet normal 0.000000 0.000000 -1.000000
outer loop
vertex -0.394789 -0.880895 0.000000
vertex -0.472008 -0.732200 0.000000
vertex -0.519559 -0.570856 0.000000
endloop
endfacet
facet normal 0.000000 0.000000 -1.000000
outer loop
vertex -0.519559 -0.570856 0.000000
vertex -0.535615 -0.403065 0.000000
vertex -0.519559 -0.235273 0.000000
endloop
endfacet
facet normal 0.000000 0.000000 -1.000000
outer loop
vertex -0.519559 -0.235273 0.000000
vertex -0.472008 -0.073930 0.000000
vertex -0.394789 0.074765 0.000000
endloop
endfacet
facet normal 0.000000 0.000000 -1.000000
outer loop
vertex -0.394789 0.074765 0.000000
vertex -0.290869 0.205097 0.000000
vertex -0.164243 0.312058 0.000000
endloop
endfacet
facet normal 0.000000 0.000000 -1.000000
outer loop
vertex -0.164243 0.312058 0.000000
vertex -0.019776 0.391537 0.000000
vertex 0.136980 0.440480 0.000000
endloop
endfacet
facet normal 0.000000 0.000000 -1.000000
outer loop
vertex 0.136980 0.440480 0.000000
vertex 0.463020 0.440480 0.000000
vertex 0.764243 0.312058 0.000000
endloop
endfacet
facet normal 0.000000 0.000000 -1.000000
outer loop
vertex 0.764243 0.312058 0.000000
vertex 0.994789 0.074765 0.000000
vertex 1.119559 -0.235273 0.000000
endloop
endfacet
facet normal 0.000000 0.000000 -1.000000
outer loop
vertex 1.119559 -0.235273 0.000000
vertex 1.119559 -0.570856 0.000000
vertex 0.994789 -0.880894 0.000000
endloop
endfacet
facet normal 0.000000 0.000000 -1.000000
outer loop
vertex 0.994789 -0.880894 0.000000
vertex 0.764243 -1.118187 0.000000
vertex 0.463020 -1.246609 0.000000
endloop
endfacet
facet normal 0.000000 0.000000 -1.000000
outer loop
vertex 0.463020 -1.246609 0.000000
vertex 0.136980 -1.246609 0.000000
vertex -0.164243 -1.118187 0.000000
endloop
endfacet
facet normal 0.000000 0.000000 -1.000000
outer loop
vertex -0.164243 -1.118187 0.000000
vertex -0.394789 -0.880895 0.000000
vertex -0.519559 -0.570856 0.000000
endloop
endfacet
facet normal 0.000000 0.000000 -1.000000
outer loop
vertex -0.519559 -0.570856 0.000000
vertex -0.519559 -0.235273 0.000000
vertex -0.394789 0.074765 0.000000
endloop
endfacet
facet normal 0.000000 0.000000 -1.000000
outer loop
vertex -0.394789 0.074765 0.000000
vertex -0.164243 0.312058 0.000000
vertex 0.136980 0.440480 0.000000
endloop
endfacet
facet normal 0.000000 0.000000 -1.000000
outer loop
vertex 0.136980 0.440480 0.000000
vertex 0.764243 0.312058 0.000000
vertex 1.119559 -0.235273 0.000000
endloop
endfacet
facet normal 0.000000 0.000000 -1.000000
outer loop
vertex 1.119559 -0.235273 0.000000
vertex 0.994789 -0.880894 0.000000
vertex 0.463020 -1.246609 0.000000
endloop
endfacet
facet normal 0.000000 0.000000 -1.000000
outer loop
vertex 0.463020 -1.246609 0.000000
vertex -0.164243 -1.118187 0.000000
vertex -0.519559 -0.570856 0.000000
endloop
endfacet
facet normal 0.000000 0.000000 -1.000000
outer loop
vertex -0.519559 -0.570856 0.000000
vertex -0.394789 0.074765 0.000000
vertex 0.136980 0.440480 0.000000
endloop
endfacet
facet normal 0.000000 0.000000 -1.000000
outer loop
vertex 0.136980 0.440480 0.000000
vertex 1.119559 -0.235273 0.000000
vertex 0.463020 -1.246609 0.000000
endloop
endfacet
facet normal 0.000000 0.000000 -1.000000
outer loop
vertex 0.463020 -1.246609 0.000000
vertex -0.519559 -0.570856 0.000000
vertex 0.136980 0.440480 0.000000
endloop
endfacet
facet normal 0.000000 0.000000 1.000000
outer loop
vertex 0.300000 -0.079050 2.948842
vertex 0.355563 -0.084683 2.948842
vertex 0.463020 0.440480 2.948842
endloop
endfacet
facet normal 0.000002 0.000000 1.000000
outer loop
vertex 0.300000 -0.079050 2.948842
vertex 0.463020 0.440480 2.948842
vertex 0.300000 0.457006 2.948842
endloop
endfacet
facet normal 0.000000 0.000000 1.000000
outer loop
vertex 0.355563 -0.084683 2.948842
vertex 0.409664 -0.101574 2.948842
vertex 0.619776 0.391537 2.948842
endloop
endfacet
facet normal 0.000000 0.000000 1.000000
outer loop
vertex 0.355563 -0.084683 2.948842
vertex 0.619776 0.391537 2.948842
vertex 0.463020 0.440480 2.948842
endloop
endfacet
facet normal 0.000000 0.000000 1.000000
outer loop
vertex 0.409664 -0.101574 2.948842
vertex 0.460652 -0.129626 2.948842
vertex 0.764243 0.312058 2.948842
endloop
endfacet
facet normal -0.000001 0.000000 1.000000
outer loop
vertex 0.409664 -0.101574 2.948842
vertex 0.764243 0.312058 2.948842
vertex 0.619776 0.391537 2.948842
endloop
endfacet
facet normal 0.000000 0.000000 1.000000
outer loop
vertex 0.460652 -0.129626 2.948842
vertex 0.506608 -0.168445 2.948842
vertex 0.890869 0.205097 2.948842
endloop
endfacet
facet normal 0.000001 0.000000 1.000000
outer loop
vertex 0.460652 -0.129626 2.948842
vertex 0.890869 0.205097 2.948842
vertex 0.764243 0.312058 2.948842
endloop
endfacet
facet normal 0.000000 0.000000 1.000000
outer loop
vertex 0.506608 -0.168445 2.948842
vertex 0.545417 -0.217118 2.948842
vertex 0.994789 0.074765 2.948842
endloop
endfacet
facet normal 0.000001 0.000000 1.000000
outer loop
vertex 0.506608 -0.168445 2.948842
vertex 0.994789 0.074765 2.948842
vertex 0.890869 0.205097 2.948842
endloop
endfacet
facet normal 0.000000 0.000000 1.000000
outer loop
vertex 0.545417 -0.217118 2.948842
vertex 0.574987 -0.274058 2.948842
vertex 1.072008 -0.073930 2.948842
endloop
endfacet
facet normal 0.000000 0.000000 1.000000
outer loop
vertex 0.545417 -0.217118 2.948842
vertex 1.072008 -0.073930 2.948842
vertex 0.994789 0.074765 2.948842
endloop
endfacet
facet normal 0.000000 0.000000 1.000000
outer loop
vertex 0.574987 -0.274058 2.948842
vertex 0.593533 -0.336986 2.948842
vertex 1.119559 -0.235273 2.948842
endloop
endfacet
facet normal 0.000000 0.000000 1.000000
outer loop
vertex 0.574987 -0.274058 2.948842
vertex 1.119559 -0.235273 2.948842
vertex 1.072008 -0.073930 2.948842
endloop
endfacet
facet normal 0.000000 0.000000 1.000000
outer loop
vertex 0.593533 -0.336986 2.948842
vertex 0.599856 -0.403065 2.948842
vertex 1.135615 -0.403065 2.948842
endloop
endfacet
facet normal 0.000000 0.000000 1.000000
outer loop
vertex 0.593533 -0.336986 2.948842
vertex 1.135615 -0.403065 2.948842
vertex 1.119559 -0.235273 2.948842
endloop
endfacet
facet normal 0.000000 0.000000 1.000000
outer loop
vertex 0.599856 -0.403065 2.948842
vertex 0.593533 -0.469143 2.948842
vertex 1.119559 -0.570856 2.948842
endloop
endfacet
facet normal 0.000000 0.000000 1.000000
outer loop
vertex 0.599856 -0.403065 2.948842
vertex 1.119559 -0.570856 2.948842
vertex 1.135615 -0.403065 2.948842
endloop
endfacet
facet normal 0.000000 0.000000 1.000000
outer loop
vertex 0.593533 -0.469143 2.948842
vertex 0.574987 -0.532072 2.948842
vertex 1.072008 -0.732200 2.948842
endloop
endfacet
facet normal 0.000000 0.000000 1.000000
outer loop
vertex 0.593533 -0.469143 2.948842
vertex 1.072008 -0.732200 2.948842
vertex 1.119559 -0.570856 2.948842
endloop
endfacet
facet normal 0.000003 0.000000 1.000000
outer loop
vertex 0.574987 -0.532072 2.948842
vertex 0.545417 -0.589012 2.948842
vertex 0.994789 -0.880894 2.948842
endloop
endfacet
facet normal -0.000001 0.000000 1.000000
outer loop
vertex 0.574987 -0.532072 2.948842
vertex 0.994789 -0.880894 2.948842
vertex 1.072008 -0.732200 2.948842
endloop
endfacet
facet normal 0.000000 0.000000 1.000000
outer loop
vertex 0.545417 -0.589012 2.948842
vertex 0.506608 -0.637685 2.948842
vertex 0.890869 -1.011227 2.948842
endloop
endfacet
facet normal -0.000001 0.000000 1.000000
outer loop
vertex 0.545417 -0.589012 2.948842
vertex 0.890869 -1.011227 2.948842
vertex 0.994789 -0.880894 2.948842
endloop
endfacet
facet normal 0.000000 0.000000 1.000000
outer loop
vertex 0.506608 -0.637685 2.948842
vertex 0.460652 -0.676504 2.948842
vertex 0.764243 -1.118187 2.948842
endloop
endfacet
facet normal -0.000001 0.000000 1.000000
outer loop
vertex 0.506608 -0.637685 2.948842
vertex 0.764243 -1.118187 2.948842
vertex 0.890869 -1.011227 2.948842
endloop
endfacet
facet normal 0.000000 0.000000 1.000000
outer loop
vertex 0.460652 -0.676504 2.948842
vertex 0.409664 -0.704555 2.948842
vertex 0.619776 -1.197666 2.948842
endloop
endfacet
facet normal -0.000000 0.000000 1.000000
outer loop
vertex 0.460652 -0.676504 2.948842
vertex 0.619776 -1.197666 2.948842
vertex 0.764243 -1.118187 2.948842
endloop
endfacet
facet normal 0.000008 0.000000 1.000000
outer loop
vertex 0.409664 -0.704555 2.948842
vertex 0.355563 -0.721447 2.948842
vertex 0.463020 -1.246609 2.948842
endloop
endfacet
facet normal -0.000001 0.000000 1.000000
outer loop
vertex 0.409664 -0.704555 2.948842
vertex 0.463020 -1.246609 2.948842
vertex 0.619776 -1.197666 2.948842
endloop
endfacet
facet normal 0.000000 0.000000 1.000000
outer loop
vertex 0.355563 -0.721447 2.948842
vertex 0.300000 -0.727079 2.948842
vertex 0.300000 -1.263135 2.948842
endloop
endfacet
facet normal 0.000000 0.000000 1.000000
outer loop
vertex 0.355563 -0.721447 2.948842
vertex 0.300000 -1.263135 2.948842
vertex 0.463020 -1.246609 2.948842
endloop
endfacet
facet normal 0.000000 0.000000 1.000000
outer loop
vertex 0.300000 -0.727079 2.948842
vertex 0.244437 -0.721447 2.948842
vertex 0.136980 -1.246609 2.948842
endloop
endfacet
facet normal -0.000000 0.000000 1.000000
outer loop
vertex 0.300000 -0.727079 2.948842
vertex 0.136980 -1.246609 2.948842
vertex 0.300000 -1.263135 2.948842
endloop
endfacet
facet normal -0.000008 0.000000 1.000000
outer loop
vertex 0.244437 -0.721447 2.948842
vertex 0.190336 -0.704555 2.948842
vertex -0.019776 -1.197666 2.948842
endloop
endfacet
facet normal 0.000001 0.000000 1.000000
outer loop
vertex 0.244437 -0.721447 2.948842
vertex -0.019776 -1.197666 2.948842
vertex 0.136980 -1.246609 2.948842
endloop
endfacet
facet normal 0.000000 0.000000 1.000000
outer loop
vertex 0.190336 -0.704555 2.948842
vertex 0.139348 -0.676503 2.948842
vertex -0.164243 -1.118187 2.948842
endloop
endfacet
facet normal 0.000000 0.000000 1.000000
outer loop
vertex 0.190336 -0.704555 2.948842
vertex -0.164243 -1.118187 2.948842
vertex -0.019776 -1.197666 2.948842
endloop
endfacet
facet normal 0.000000 0.000000 1.000000
outer loop
vertex 0.139348 -0.676503 2.948842
vertex 0.093392 -0.637685 2.948842
vertex -0.290869 -1.011227 2.948842
endloop
endfacet
facet normal 0.000000 0.000000 1.000000
outer loop
vertex 0.139348 -0.676503 2.948842
vertex -0.290869 -1.011227 2.948842
vertex -0.164243 -1.118187 2.948842
endloop
endfacet
facet normal 0.000004 0.000000 1.000000
outer loop
vertex 0.093392 -0.637685 2.948842
vertex 0.054583 -0.589012 2.948842
vertex -0.394789 -0.880895 2.948842
endloop
endfacet
facet normal -0.000001 0.000000 1.000000
outer loop
vertex 0.093392 -0.637685 2.948842
vertex -0.394789 -0.880895 2.948842
vertex -0.290869 -1.011227 2.948842
endloop
endfacet
facet normal 0.000000 0.000000 1.000000
outer loop
vertex 0.054583 -0.589012 2.948842
vertex 0.025013 -0.532072 2.948842
vertex -0.472008 -0.732200 2.948842
endloop
endfacet
facet normal -0.000001 0.000000 1.000000
outer loop
vertex 0.054583 -0.589012 2.948842
vertex -0.472008 -0.732200 2.948842
vertex -0.394789 -0.880895 2.948842
endloop
endfacet
facet normal 0.000000 0.000000 1.000000
outer loop
vertex 0.025013 -0.532072 2.948842
vertex 0.006467 -0.469143 2.948842
vertex -0.519559 -0.570856 2.948842
endloop
endfacet
facet normal 0.000000 0.000000 1.000000
outer loop
vertex 0.025013 -0.532072 2.948842
vertex -0.519559 -0.570856 2.948842
vertex -0.472008 -0.732200 2.948842
endloop
endfacet
facet normal 0.000000 0.000000 1.000000
outer loop
vertex 0.006467 -0.469143 2.948842
vertex 0.000144 -0.403065 2.948842
vertex -0.535615 -0.403065 2.948842
endloop
endfacet
facet normal 0.000000 0.000000 1.000000
outer loop
vertex 0.006467 -0.469143 2.948842
vertex -0.535615 -0.403065 2.948842
vertex -0.519559 -0.570856 2.948842
endloop
endfacet
facet normal 0.000000 0.000000 1.000000
outer loop
vertex 0.000144 -0.403065 2.948842
vertex 0.006467 -0.336986 2.948842
vertex -0.519559 -0.235273 2.948842
endloop
endfacet
facet normal 0.000000 0.000000 1.000000
outer loop
vertex 0.000144 -0.403065 2.948842
vertex -0.519559 -0.235273 2.948842
vertex -0.535615 -0.403065 2.948842
endloop
endfacet
facet normal 0.000000 0.000000 1.000000
outer loop
vertex 0.006467 -0.336986 2.948842
vertex 0.025013 -0.274058 2.948842
vertex -0.472008 -0.073930 2.948842
endloop
endfacet
facet normal 0.000000 0.000000 1.000000
outer loop
vertex 0.006467 -0.336986 2.948842
vertex -0.472008 -0.073930 2.948842
vertex -0.519559 -0.235273 2.948842
endloop
endfacet
facet normal -0.000003 0.000000 1.000000
outer loop
vertex 0.025013 -0.274058 2.948842
vertex 0.054583 -0.217118 2.948842
vertex -0.394789 0.074765 2.948842
endloop
endfacet
facet normal 0.000000 0.000000 1.000000
outer loop
vertex 0.025013 -0.274058 2.948842
vertex -0.394789 0.074765 2.948842
vertex -0.472008 -0.073930 2.948842
endloop
endfacet
facet normal 0.000007 0.000000 1.000000
outer loop
vertex 0.054583 -0.217118 2.948842
vertex 0.093392 -0.168445 2.948842
vertex -0.290869 0.205097 2.948842
endloop
endfacet
facet normal 0.000000 0.000000 1.000000
outer loop
vertex 0.054583 -0.217118 2.948842
vertex -0.290869 0.205097 2.948842
vertex -0.394789 0.074765 2.948842
endloop
endfacet
facet normal 0.000000 0.000000 1.000000
outer loop
vertex 0.093392 -0.168445 2.948842
vertex 0.139348 -0.129626 2.948842
vertex -0.164243 0.312058 2.948842
endloop
endfacet
facet normal -0.000002 0.000000 1.000000
outer loop
vertex 0.093392 -0.168445 2.948842
vertex -0.164243 0.312058 2.948842
vertex -0.290869 0.205097 2.948842
endloop
endfacet
facet normal 0.000000 0.000000 1.000000
outer loop
vertex 0.139348 -0.129626 2.948842
vertex 0.190336 -0.101574 2.948842
vertex -0.019776 0.391537 2.948842
endloop
endfacet
facet normal 0.000000 0.000000 1.000000
outer loop
vertex 0.139348 -0.129626 2.948842
vertex -0.019776 0.391537 2.948842
vertex -0.164243 0.312058 2.948842
endloop
endfacet
facet normal 0.000000 0.000000 1.000000
outer loop
vertex 0.190336 -0.101574 2.948842
vertex 0.244437 -0.084683 2.948842
vertex 0.136980 0.440480 2.948842
endloop
endfacet
facet normal -0.000000 0.000000 1.000000
outer loop
vertex 0.190336 -0.101574 2.948842
vertex 0.136980 0.440480 2.948842
vertex -0.019776 0.391537 2.948842
endloop
endfacet
facet normal 0.000000 0.000000 1.000000
outer loop
vertex 0.244437 -0.084683 2.948842
vertex 0.300000 -0.079050 2.948842
vertex 0.300000 0.457006 2.948842
endloop
endfacet
facet normal -0.000000 0.000000 1.000000
outer loop
vertex 0.244437 -0.084683 2.948842
vertex 0.300000 0.457006 2.948842
vertex 0.136980 0.440480 2.948842
endloop
endfacet
facet normal -0.000006 0.000000 1.000000
outer loop
vertex 0.409664 -0.101574 3.574248
vertex 0.355563 -0.084683 3.574248
vertex 0.300000 -0.079050 3.574248
endloop
endfacet
facet normal 0.000000 0.000000 1.000000
outer loop
vertex 0.300000 -0.079050 3.574248
vertex 0.244437 -0.084683 3.574248
vertex 0.190336 -0.101574 3.574248
endloop
endfacet
facet normal 0.000000 0.000000 1.000000
outer loop
vertex 0.190336 -0.101574 3.574248
vertex 0.139348 -0.129626 3.574248
vertex 0.093392 -0.168445 3.574248
endloop
endfacet
facet normal -0.000039 0.000000 1.000000
outer loop
vertex 0.093392 -0.168445 3.574248
vertex 0.054583 -0.217118 3.574248
vertex 0.025013 -0.274058 3.574248
endloop
endfacet
facet normal 0.000036 0.000000 1.000000
outer loop
vertex 0.025013 -0.274058 3.574248
vertex 0.006467 -0.336986 3.574248
vertex 0.000144 -0.403065 3.574248
endloop
endfacet
facet normal 0.000036 0.000000 1.000000
outer loop
vertex 0.000144 -0.403065 3.574248
vertex 0.006467 -0.469143 3.574248
vertex 0.025013 -0.532072 3.574248
endloop
endfacet
facet normal -0.000039 0.000000 1.000000
outer loop
vertex 0.025013 -0.532072 3.574248
vertex 0.054583 -0.589012 3.574248
vertex 0.093392 -0.637685 3.574248
endloop
endfacet
facet normal 0.000022 0.000000 1.000000
outer loop
vertex 0.093392 -0.637685 3.574248
vertex 0.139348 -0.676503 3.574248
vertex 0.190336 -0.704555 3.574248
endloop
endfacet
facet normal 0.000006 0.000000 1.000000
outer loop
vertex 0.190336 -0.704555 3.574248
vertex 0.244437 -0.721447 3.574248
vertex 0.300000 -0.727079 3.574248
endloop
endfacet
facet normal 0.000012 0.000000 1.000000
outer loop
vertex 0.300000 -0.727079 3.574248
vertex 0.355563 -0.721447 3.574248
vertex 0.409664 -0.704555 3.574248
endloop
endfacet
facet normal 0.000000 0.000000 1.000000
outer loop
vertex 0.409664 -0.704555 3.574248
vertex 0.460652 -0.676504 3.574248
vertex 0.506608 -0.637685 3.574248
endloop
endfacet
facet normal 0.000000 0.000000 1.000000
outer loop
vertex 0.506608 -0.637685 3.574248
vertex 0.545417 -0.589012 3.574248
vertex 0.574987 -0.532072 3.574248
endloop
endfacet
facet normal -0.000036 0.000000 1.000000
outer loop
vertex 0.574987 -0.532072 3.574248
vertex 0.593533 -0.469143 3.574248
vertex 0.599856 -0.403065 3.574248
endloop
endfacet
facet normal 0.000036 0.000000 1.000000
outer loop
vertex 0.599856 -0.403065 3.574248
vertex 0.593533 -0.336986 3.574248
vertex 0.574987 -0.274058 3.574248
endloop
endfacet
facet normal 0.000000 0.000000 1.000000
outer loop
vertex 0.574987 -0.274058 3.574248
vertex 0.545417 -0.217118 3.574248
vertex 0.506608 -0.168445 3.574248
endloop
endfacet
facet normal 0.000000 0.000000 1.000000
outer loop
vertex 0.506608 -0.168445 3.574248
vertex 0.460652 -0.129626 3.574248
vertex 0.409664 -0.101574 3.574248
endloop
endfacet
facet normal 0.000000 0.000000 1.000000
outer loop
vertex 0.409664 -0.101574 3.574248
vertex 0.300000 -0.079050 3.574248
vertex 0.190336 -0.101574 3.574248
endloop
endfacet
facet normal 0.000011 0.000000 1.000000
outer loop
vertex 0.190336 -0.101574 3.574248
vertex 0.093392 -0.168445 3.574248
vertex 0.025013 -0.274058 3.574248
endloop
endfacet
facet normal 0.000000 0.000000 1.000000
outer loop
vertex 0.025013 -0.274058 3.574248
vertex 0.000144 -0.403065 3.574248
vertex 0.025013 -0.532072 3.574248
endloop
endfacet
facet normal 0.000011 0.000000 1.000000
outer loop
vertex 0.025013 -0.532072 3.574248
vertex 0.093392 -0.637685 3.574248
vertex 0.190336 -0.704555 3.574248
endloop
endfacet
facet normal 0.000000 0.000000 1.000000
outer loop
vertex 0.190336 -0.704555 3.574248
vertex 0.300000 -0.727079 3.574248
vertex 0.409664 -0.704555 3.574248
endloop
endfacet
facet normal 0.000000 0.000000 1.000000
outer loop
vertex 0.409664 -0.704555 3.574248
vertex 0.506608 -0.637685 3.574248
vertex 0.574987 -0.532072 3.574248
endloop
endfacet
facet normal 0.000000 0.000000 1.000000
outer loop
vertex 0.574987 -0.532072 3.574248
vertex 0.599856 -0.403065 3.574248
vertex 0.574987 -0.274058 3.574248
endloop
endfacet
facet normal -0.000011 0.000000 1.000000
outer loop
vertex 0.574987 -0.274058 3.574248
vertex 0.506608 -0.168445 3.574248
vertex 0.409664 -0.101574 3.574248
endloop
endfacet
facet normal 0.000000 0.000000 1.000000
outer loop
vertex 0.409664 -0.101574 3.574248
vertex 0.190336 -0.101574 3.574248
vertex 0.025013 -0.274058 3.574248
endloop
endfacet
facet normal -0.000003 0.000000 1.000000
outer loop
vertex 0.025013 -0.274058 3.574248
vertex 0.025013 -0.532072 3.574248
vertex 0.190336 -0.704555 3.574248
endloop
endfacet
facet normal -0.000003 0.000000 1.000000
outer loop
vertex 0.190336 -0.704555 3.574248
vertex 0.409664 -0.704555 3.574248
vertex 0.574987 -0.532072 3.574248
endloop
endfacet
facet normal 0.000000 0.000000 1.000000
outer loop
vertex 0.574987 -0.532072 3.574248
vertex 0.574987 -0.274058 3.574248
vertex 0.409664 -0.101574 3.574248
endloop
endfacet
facet normal 0.000000 0.000000 1.000000
outer loop
vertex 0.409664 -0.101574 3.574248
vertex 0.025013 -0.274058 3.574248
vertex 0.190336 -0.704555 3.574248
endloop
endfacet
facet normal 0.000000 0.000000 1.000000
outer loop
vertex 0.190336 -0.704555 3.574248
vertex 0.574987 -0.532072 3.574248
vertex 0.409664 -0.101574 3.574248
endloop
endfacet
facet normal -0.482023 0.876159 -0.000000
outer loop
vertex 0.190336 -0.101574 2.948842
vertex 0.139348 -0.129626 2.948842
vertex 0.139348 -0.129626 3.574248
endloop
endfacet
facet normal -0.482023 0.876159 -0.000000
outer loop
vertex 0.190336 -0.101574 2.948842
vertex 0.139348 -0.129626 3.574248
vertex 0.190336 -0.101574 3.574248
endloop
endfacet
facet normal -0.100856 -0.994901 0.000000
outer loop
vertex 0.244437 -0.721447 2.948842
vertex 0.300000 -0.727079 2.948842
vertex 0.300000 -0.727079 3.574248
endloop
endfacet
facet normal -0.100856 -0.994901 0.000000
outer loop
vertex 0.244437 -0.721447 2.948842
vertex 0.300000 -0.727079 3.574248
vertex 0.244437 -0.721447 3.574248
endloop
endfacet
facet normal 0.645294 0.763934 0.000000
outer loop
vertex 0.506608 -0.168445 2.948842
vertex 0.460652 -0.129626 2.948842
vertex 0.460652 -0.129626 3.574248
endloop
endfacet
facet normal 0.645293 0.763935 0.000000
outer loop
vertex 0.506608 -0.168445 2.948842
vertex 0.460652 -0.129626 3.574248
vertex 0.506608 -0.168445 3.574248
endloop
endfacet
facet normal -0.298036 0.954555 -0.000000
outer loop
vertex 0.244437 -0.084683 2.948842
vertex 0.190336 -0.101574 2.948842
vertex 0.190336 -0.101574 3.574248
endloop
endfacet
facet normal -0.298036 0.954555 -0.000000
outer loop
vertex 0.244437 -0.084683 2.948842
vertex 0.190336 -0.101574 3.574248
vertex 0.244437 -0.084683 3.574248
endloop
endfacet
facet normal -0.298037 -0.954554 -0.000000
outer loop
vertex 0.190336 -0.704555 2.948842
vertex 0.244437 -0.721447 2.948842
vertex 0.244437 -0.721447 3.574248
endloop
endfacet
facet normal -0.298037 -0.954554 0.000000
outer loop
vertex 0.190336 -0.704555 2.948842
vertex 0.244437 -0.721447 3.574248
vertex 0.190336 -0.704555 3.574248
endloop
endfacet
facet normal 0.781882 0.623426 0.000000
outer loop
vertex 0.545417 -0.217118 2.948842
vertex 0.506608 -0.168445 2.948842
vertex 0.506608 -0.168445 3.574248
endloop
endfacet
facet normal 0.781881 0.623428 0.000000
outer loop
vertex 0.545417 -0.217118 2.948842
vertex 0.506608 -0.168445 3.574248
vertex 0.545417 -0.217118 3.574248
endloop
endfacet
facet normal -0.100857 0.994901 -0.000000
outer loop
vertex 0.300000 -0.079050 2.948842
vertex 0.244437 -0.084683 2.948842
vertex 0.244437 -0.084683 3.574248
endloop
endfacet
facet normal -0.100857 0.994901 -0.000000
outer loop
vertex 0.300000 -0.079050 2.948842
vertex 0.244437 -0.084683 3.574248
vertex 0.300000 -0.079050 3.574248
endloop
endfacet
facet normal -0.482023 -0.876158 -0.000000
outer loop
vertex 0.139348 -0.676503 2.948842
vertex 0.190336 -0.704555 2.948842
vertex 0.190336 -0.704555 3.574248
endloop
endfacet
facet normal -0.482024 -0.876158 0.000000
outer loop
vertex 0.139348 -0.676503 2.948842
vertex 0.190336 -0.704555 3.574248
vertex 0.139348 -0.676503 3.574248
endloop
endfacet
facet normal 0.887466 0.460872 0.000000
outer loop
vertex 0.574987 -0.274058 2.948842
vertex 0.545417 -0.217118 2.948842
vertex 0.545417 -0.217118 3.574248
endloop
endfacet
facet normal 0.887465 0.460875 0.000000
outer loop
vertex 0.574987 -0.274058 2.948842
vertex 0.545417 -0.217118 3.574248
vertex 0.574987 -0.274058 3.574248
endloop
endfacet
facet normal -0.645292 -0.763936 -0.000000
outer loop
vertex 0.093392 -0.637685 2.948842
vertex 0.139348 -0.676503 2.948842
vertex 0.139348 -0.676503 3.574248
endloop
endfacet
facet normal -0.645293 -0.763935 -0.000000
outer loop
vertex 0.093392 -0.637685 2.948842
vertex 0.139348 -0.676503 3.574248
vertex 0.093392 -0.637685 3.574248
endloop
endfacet
facet normal 0.959209 0.282696 0.000000
outer loop
vertex 0.593533 -0.336986 2.948842
vertex 0.574987 -0.274058 2.948842
vertex 0.574987 -0.274058 3.574248
endloop
endfacet
facet normal 0.959209 0.282699 0.000000
outer loop
vertex 0.593533 -0.336986 2.948842
vertex 0.574987 -0.274058 3.574248
vertex 0.593533 -0.336986 3.574248
endloop
endfacet
facet normal -0.781881 -0.623428 -0.000000
outer loop
vertex 0.054583 -0.589012 2.948842
vertex 0.093392 -0.637685 2.948842
vertex 0.093392 -0.637685 3.574248
endloop
endfacet
facet normal -0.781881 -0.623428 -0.000000
outer loop
vertex 0.054583 -0.589012 2.948842
vertex 0.093392 -0.637685 3.574248
vertex 0.054583 -0.589012 3.574248
endloop
endfacet
facet normal 0.995453 0.095256 0.000000
outer loop
vertex 0.599856 -0.403065 2.948842
vertex 0.593533 -0.336986 2.948842
vertex 0.593533 -0.336986 3.574248
endloop
endfacet
facet normal 0.995453 0.095256 0.000000
outer loop
vertex 0.599856 -0.403065 2.948842
vertex 0.593533 -0.336986 3.574248
vertex 0.599856 -0.403065 3.574248
endloop
endfacet
facet normal -0.887466 -0.460872 -0.000000
outer loop
vertex 0.025013 -0.532072 2.948842
vertex 0.054583 -0.589012 2.948842
vertex 0.054583 -0.589012 3.574248
endloop
endfacet
facet normal -0.887466 -0.460872 -0.000000
outer loop
vertex 0.025013 -0.532072 2.948842
vertex 0.054583 -0.589012 3.574248
vertex 0.025013 -0.532072 3.574248
endloop
endfacet
facet normal 0.995453 -0.095256 0.000000
outer loop
vertex 0.593533 -0.469143 2.948842
vertex 0.599856 -0.403065 2.948842
vertex 0.599856 -0.403065 3.574248
endloop
endfacet
facet normal 0.995453 -0.095256 0.000000
outer loop
vertex 0.593533 -0.469143 2.948842
vertex 0.599856 -0.403065 3.574248
vertex 0.593533 -0.469143 3.574248
endloop
endfacet
facet normal -0.959208 -0.282700 -0.000000
outer loop
vertex 0.006467 -0.469143 2.948842
vertex 0.025013 -0.532072 2.948842
vertex 0.025013 -0.532072 3.574248
endloop
endfacet
facet normal -0.959208 -0.282700 -0.000000
outer loop
vertex 0.006467 -0.469143 2.948842
vertex 0.025013 -0.532072 3.574248
vertex 0.006467 -0.469143 3.574248
endloop
endfacet
facet normal 0.959209 -0.282699 0.000000
outer loop
vertex 0.574987 -0.532072 2.948842
vertex 0.593533 -0.469143 2.948842
vertex 0.593533 -0.469143 3.574248
endloop
endfacet
facet normal 0.959209 -0.282697 0.000000
outer loop
vertex 0.574987 -0.532072 2.948842
vertex 0.593533 -0.469143 3.574248
vertex 0.574987 -0.532072 3.574248
endloop
endfacet
facet normal -0.995453 -0.095254 -0.000000
outer loop
vertex 0.000144 -0.403065 2.948842
vertex 0.006467 -0.469143 2.948842
vertex 0.006467 -0.469143 3.574248
endloop
endfacet
facet normal -0.995453 -0.095254 -0.000000
outer loop
vertex 0.000144 -0.403065 2.948842
vertex 0.006467 -0.469143 3.574248
vertex 0.000144 -0.403065 3.574248
endloop
endfacet
facet normal 0.887466 -0.460874 0.000000
outer loop
vertex 0.545417 -0.589012 2.948842
vertex 0.574987 -0.532072 2.948842
vertex 0.574987 -0.532072 3.574248
endloop
endfacet
facet normal 0.887466 -0.460873 0.000000
outer loop
vertex 0.545417 -0.589012 2.948842
vertex 0.574987 -0.532072 3.574248
vertex 0.545417 -0.589012 3.574248
endloop
endfacet
facet normal -0.995453 0.095255 -0.000000
outer loop
vertex 0.006467 -0.336986 2.948842
vertex 0.000144 -0.403065 2.948842
vertex 0.000144 -0.403065 3.574248
endloop
endfacet
facet normal -0.995453 0.095255 -0.000000
outer loop
vertex 0.006467 -0.336986 2.948842
vertex 0.000144 -0.403065 3.574248
vertex 0.006467 -0.336986 3.574248
endloop
endfacet
facet normal 0.781881 -0.623427 0.000000
outer loop
vertex 0.506608 -0.637685 2.948842
vertex 0.545417 -0.589012 2.948842
vertex 0.545417 -0.589012 3.574248
endloop
endfacet
facet normal 0.781881 -0.623428 0.000000
outer loop
vertex 0.506608 -0.637685 2.948842
vertex 0.545417 -0.589012 3.574248
vertex 0.506608 -0.637685 3.574248
endloop
endfacet
facet normal -0.959208 0.282700 -0.000000
outer loop
vertex 0.025013 -0.274058 2.948842
vertex 0.006467 -0.336986 2.948842
vertex 0.006467 -0.336986 3.574248
endloop
endfacet
facet normal -0.959208 0.282700 -0.000000
outer loop
vertex 0.025013 -0.274058 2.948842
vertex 0.006467 -0.336986 3.574248
vertex 0.025013 -0.274058 3.574248
endloop
endfacet
facet normal 0.645295 -0.763933 0.000000
outer loop
vertex 0.460652 -0.676504 2.948842
vertex 0.506608 -0.637685 2.948842
vertex 0.506608 -0.637685 3.574248
endloop
endfacet
facet normal 0.645295 -0.763933 0.000000
outer loop
vertex 0.460652 -0.676504 2.948842
vertex 0.506608 -0.637685 3.574248
vertex 0.460652 -0.676504 3.574248
endloop
endfacet
facet normal -0.887467 0.460872 -0.000000
outer loop
vertex 0.054583 -0.217118 2.948842
vertex 0.025013 -0.274058 2.948842
vertex 0.025013 -0.274058 3.574248
endloop
endfacet
facet normal -0.887466 0.460872 -0.000000
outer loop
vertex 0.054583 -0.217118 2.948842
vertex 0.025013 -0.274058 3.574248
vertex 0.054583 -0.217118 3.574248
endloop
endfacet
facet normal 0.482021 -0.876160 0.000000
outer loop
vertex 0.409664 -0.704555 2.948842
vertex 0.460652 -0.676504 2.948842
vertex 0.460652 -0.676504 3.574248
endloop
endfacet
facet normal 0.482020 -0.876160 0.000000
outer loop
vertex 0.409664 -0.704555 2.948842
vertex 0.460652 -0.676504 3.574248
vertex 0.409664 -0.704555 3.574248
endloop
endfacet
facet normal 0.100857 0.994901 0.000000
outer loop
vertex 0.355563 -0.084683 2.948842
vertex 0.300000 -0.079050 2.948842
vertex 0.300000 -0.079050 3.574248
endloop
endfacet
facet normal 0.100857 0.994901 0.000000
outer loop
vertex 0.355563 -0.084683 2.948842
vertex 0.300000 -0.079050 3.574248
vertex 0.355563 -0.084683 3.574248
endloop
endfacet
facet normal -0.781881 0.623427 -0.000000
outer loop
vertex 0.093392 -0.168445 2.948842
vertex 0.054583 -0.217118 2.948842
vertex 0.054583 -0.217118 3.574248
endloop
endfacet
facet normal -0.781881 0.623428 -0.000000
outer loop
vertex 0.093392 -0.168445 2.948842
vertex 0.054583 -0.217118 3.574248
vertex 0.093392 -0.168445 3.574248
endloop
endfacet
facet normal 0.298037 -0.954554 0.000000
outer loop
vertex 0.355563 -0.721447 2.948842
vertex 0.409664 -0.704555 2.948842
vertex 0.409664 -0.704555 3.574248
endloop
endfacet
facet normal 0.298037 -0.954554 0.000000
outer loop
vertex 0.355563 -0.721447 2.948842
vertex 0.409664 -0.704555 3.574248
vertex 0.355563 -0.721447 3.574248
endloop
endfacet
facet normal 0.298036 0.954555 0.000000
outer loop
vertex 0.409664 -0.101574 2.948842
vertex 0.355563 -0.084683 2.948842
vertex 0.355563 -0.084683 3.574248
endloop
endfacet
facet normal 0.298036 0.954555 0.000000
outer loop
vertex 0.409664 -0.101574 2.948842
vertex 0.355563 -0.084683 3.574248
vertex 0.409664 -0.101574 3.574248
endloop
endfacet
facet normal -0.645294 0.763934 -0.000000
outer loop
vertex 0.139348 -0.129626 2.948842
vertex 0.093392 -0.168445 2.948842
vertex 0.093392 -0.168445 3.574248
endloop
endfacet
facet normal -0.645293 0.763935 -0.000000
outer loop
vertex 0.139348 -0.129626 2.948842
vertex 0.093392 -0.168445 3.574248
vertex 0.139348 -0.129626 3.574248
endloop
endfacet
facet normal 0.100857 -0.994901 0.000000
outer loop
vertex 0.300000 -0.727079 2.948842
vertex 0.355563 -0.721447 2.948842
vertex 0.355563 -0.721447 3.574248
endloop
endfacet
facet normal 0.100857 -0.994901 0.000000
outer loop
vertex 0.300000 -0.727079 2.948842
vertex 0.355563 -0.721447 3.574248
vertex 0.300000 -0.727079 3.574248
endloop
endfacet
endsolid Exported from Blender-3.1.2
