solid Exported from Blender-3.1.2
facet normal 0.152867 0.988247 0.000000
outer loop
vertex 19.942579 7.321990 2.000000
vertex 20.313742 7.264577 2.000000
vertex 20.313742 7.264577 1.000000
endloop
endfacet
facet normal 0.152867 0.988247 0.000000
outer loop
vertex 19.942579 7.321990 2.000000
vertex 20.313742 7.264577 1.000000
vertex 19.942579 7.321990 1.000000
endloop
endfacet
facet normal 0.089892 0.995952 0.000000
outer loop
vertex 19.570532 7.360332 1.000000
vertex 19.756577 7.343541 1.000000
vertex 19.756577 7.343541 0.500000
endloop
endfacet
facet normal 0.089891 0.995952 0.000000
outer loop
vertex 19.570532 7.360332 1.000000
vertex 19.756577 7.343541 0.500000
vertex 19.570532 7.360332 0.500000
endloop
endfacet
facet normal 0.115091 0.993355 0.000000
outer loop
vertex 19.756577 7.343541 1.000000
vertex 19.942579 7.321990 1.000000
vertex 19.942579 7.321990 0.500000
endloop
endfacet
facet normal 0.115088 0.993355 0.000000
outer loop
vertex 19.756577 7.343541 1.000000
vertex 19.942579 7.321990 0.500000
vertex 19.756577 7.343541 0.500000
endloop
endfacet
facet normal 0.556410 -0.830908 0.000000
outer loop
vertex 23.677359 -5.711595 -0.000000
vertex 23.677359 -5.711595 4.000000
vertex 22.500000 -6.500000 4.000000
endloop
endfacet
facet normal 0.556408 -0.830909 0.000000
outer loop
vertex 23.677359 -5.711595 -0.000000
vertex 22.500000 -6.500000 4.000000
vertex 22.500000 -6.500000 -0.000000
endloop
endfacet
facet normal 0.833133 -0.553072 0.000000
outer loop
vertex 25.531248 -3.441337 -0.000000
vertex 25.531248 -3.441338 4.000000
vertex 24.706999 -4.682965 4.000000
endloop
endfacet
facet normal 0.833133 -0.553072 0.000000
outer loop
vertex 25.531248 -3.441337 -0.000000
vertex 24.706999 -4.682965 4.000000
vertex 24.706999 -4.682965 -0.000000
endloop
endfacet
facet normal 0.706760 -0.707454 0.000000
outer loop
vertex 24.706999 -4.682965 -0.000000
vertex 24.706999 -4.682965 4.000000
vertex 23.677359 -5.711595 4.000000
endloop
endfacet
facet normal 0.706760 -0.707454 0.000000
outer loop
vertex 24.706999 -4.682965 -0.000000
vertex 23.677359 -5.711595 4.000000
vertex 23.677359 -5.711595 -0.000000
endloop
endfacet
facet normal 0.983986 -0.178244 -0.000000
outer loop
vertex 26.360332 -0.570532 -0.000000
vertex 26.360332 -0.570532 4.000000
vertex 26.092779 -2.047557 4.000000
endloop
endfacet
facet normal 0.983987 -0.178241 -0.000000
outer loop
vertex 26.360332 -0.570532 -0.000000
vertex 26.092779 -2.047557 4.000000
vertex 26.092779 -2.047557 -0.000000
endloop
endfacet
facet normal 0.976407 0.215940 0.000000
outer loop
vertex 26.022974 2.275487 0.000000
vertex 26.022974 2.275487 4.000000
vertex 26.327564 0.898227 4.000000
endloop
endfacet
facet normal 0.976407 0.215938 0.000000
outer loop
vertex 26.022974 2.275487 0.000000
vertex 26.327564 0.898227 4.000000
vertex 26.327564 0.898227 0.000000
endloop
endfacet
facet normal 0.919639 0.392765 0.000000
outer loop
vertex 25.500000 3.500000 0.000000
vertex 25.500000 3.500000 4.000000
vertex 26.022974 2.275487 4.000000
endloop
endfacet
facet normal 0.919637 0.392770 0.000000
outer loop
vertex 25.500000 3.500000 0.000000
vertex 26.022974 2.275487 4.000000
vertex 26.022974 2.275487 0.000000
endloop
endfacet
facet normal 0.999751 0.022305 0.000000
outer loop
vertex 26.327564 0.898227 0.000000
vertex 26.327564 0.898227 4.000000
vertex 26.360332 -0.570532 4.000000
endloop
endfacet
facet normal 0.999751 0.022305 0.000000
outer loop
vertex 26.327564 0.898227 0.000000
vertex 26.360332 -0.570532 4.000000
vertex 26.360332 -0.570532 -0.000000
endloop
endfacet
facet normal 0.927552 -0.373696 0.000000
outer loop
vertex 26.092779 -2.047557 -0.000000
vertex 26.092779 -2.047557 4.000000
vertex 25.531248 -3.441338 4.000000
endloop
endfacet
facet normal 0.927552 -0.373693 0.000000
outer loop
vertex 26.092779 -2.047557 -0.000000
vertex 25.531248 -3.441338 4.000000
vertex 25.531248 -3.441337 -0.000000
endloop
endfacet
facet normal 0.707452 0.706761 0.000000
outer loop
vertex 23.682964 5.706999 0.000000
vertex 23.682964 5.706999 4.000000
vertex 24.711596 4.677359 4.000000
endloop
endfacet
facet normal 0.707454 0.706759 0.000000
outer loop
vertex 23.682964 5.706999 0.000000
vertex 24.711596 4.677359 4.000000
vertex 24.711596 4.677359 0.000000
endloop
endfacet
facet normal 0.373695 0.927552 0.000000
outer loop
vertex 21.047558 7.092779 0.000000
vertex 21.047558 7.092779 4.000000
vertex 22.441338 6.531248 4.000000
endloop
endfacet
facet normal 0.373695 0.927552 0.000000
outer loop
vertex 21.047558 7.092779 0.000000
vertex 22.441338 6.531248 4.000000
vertex 22.441338 6.531248 0.000000
endloop
endfacet
facet normal 0.177952 0.982382 -0.057079
outer loop
vertex 19.942579 7.321990 0.500000
vertex 21.047558 7.092779 0.000000
vertex 19.570532 7.360332 0.000000
endloop
endfacet
facet normal 0.553072 0.833133 0.000000
outer loop
vertex 22.441338 6.531248 0.000000
vertex 22.441338 6.531248 4.000000
vertex 23.682964 5.706999 4.000000
endloop
endfacet
facet normal 0.553072 0.833133 0.000000
outer loop
vertex 22.441338 6.531248 0.000000
vertex 23.682964 5.706999 4.000000
vertex 23.682964 5.706999 0.000000
endloop
endfacet
facet normal 0.152867 0.988247 0.000000
outer loop
vertex 19.942579 7.321990 0.500000
vertex 19.942579 7.321990 1.000000
vertex 20.313742 7.264577 1.000000
endloop
endfacet
facet normal 0.190534 0.981259 -0.028763
outer loop
vertex 21.047558 7.092779 0.000000
vertex 19.942579 7.321990 0.500000
vertex 20.313742 7.264577 1.000000
endloop
endfacet
facet normal 0.089891 0.995952 0.000000
outer loop
vertex 19.756577 7.343541 0.500000
vertex 19.570532 7.360332 0.000000
vertex 19.570532 7.360332 0.500000
endloop
endfacet
facet normal 0.115086 0.993311 -0.009460
outer loop
vertex 19.570532 7.360332 0.000000
vertex 19.756577 7.343541 0.500000
vertex 19.942579 7.321990 0.500000
endloop
endfacet
facet normal 0.072505 0.997368 0.000000
outer loop
vertex 19.500000 7.365460 1.500000
vertex 19.570532 7.360332 0.500000
vertex 19.500000 7.365460 0.000000
endloop
endfacet
facet normal 0.072507 0.997368 0.000000
outer loop
vertex 19.570532 7.360332 0.000000
vertex 19.500000 7.365460 0.000000
vertex 19.570532 7.360332 0.500000
endloop
endfacet
facet normal 0.830910 0.556407 0.000000
outer loop
vertex 24.711596 4.677359 0.000000
vertex 24.711596 4.677359 4.000000
vertex 25.500000 3.500000 4.000000
endloop
endfacet
facet normal 0.830908 0.556409 0.000000
outer loop
vertex 24.711596 4.677359 0.000000
vertex 25.500000 3.500000 4.000000
vertex 25.500000 3.500000 0.000000
endloop
endfacet
facet normal 0.227955 0.973672 0.000000
outer loop
vertex 20.313742 7.264577 2.000000
vertex 21.047558 7.092779 0.000000
vertex 20.313742 7.264577 1.000000
endloop
endfacet
facet normal 0.227952 0.973672 0.000000
outer loop
vertex 20.313742 7.264577 2.000000
vertex 21.047558 7.092779 4.000000
vertex 21.047558 7.092779 0.000000
endloop
endfacet
facet normal 0.089892 0.995948 0.002466
outer loop
vertex 19.500000 7.365460 1.500000
vertex 19.756577 7.343541 1.000000
vertex 19.570532 7.360332 1.000000
endloop
endfacet
facet normal 0.072503 0.997368 0.000000
outer loop
vertex 19.570532 7.360332 0.500000
vertex 19.500000 7.365460 1.500000
vertex 19.570532 7.360332 1.000000
endloop
endfacet
facet normal 0.115091 0.993355 0.000000
outer loop
vertex 19.942579 7.321990 2.000000
vertex 19.942579 7.321990 1.000000
vertex 19.756577 7.343541 1.000000
endloop
endfacet
facet normal 0.093118 0.995647 0.004135
outer loop
vertex 19.756577 7.343541 1.000000
vertex 19.500000 7.365460 1.500000
vertex 19.942579 7.321990 2.000000
endloop
endfacet
facet normal 0.178210 0.983807 0.019121
outer loop
vertex 21.047558 7.092779 4.000000
vertex 20.313742 7.264577 2.000000
vertex 19.570532 7.360332 4.000000
endloop
endfacet
facet normal 0.094289 0.995544 -0.001546
outer loop
vertex 19.942579 7.321990 2.000000
vertex 19.500000 7.365460 3.000000
vertex 19.570532 7.360332 4.000000
endloop
endfacet
facet normal 0.152860 0.988202 0.009491
outer loop
vertex 19.942579 7.321990 2.000000
vertex 19.570532 7.360332 4.000000
vertex 20.313742 7.264577 2.000000
endloop
endfacet
facet normal 0.097748 0.995211 0.000000
outer loop
vertex 19.500000 7.365460 3.000000
vertex 19.942579 7.321990 2.000000
vertex 19.500000 7.365460 1.500000
endloop
endfacet
facet normal -0.033538 0.999397 -0.009020
outer loop
vertex 19.500000 7.365460 3.000000
vertex 18.007343 7.315370 3.000000
vertex 18.101772 7.327564 4.000000
endloop
endfacet
facet normal -0.022304 0.999729 0.006699
outer loop
vertex 19.500000 7.365460 3.000000
vertex 18.101772 7.327564 4.000000
vertex 19.570532 7.360332 4.000000
endloop
endfacet
facet normal -0.605001 0.795538 -0.033066
outer loop
vertex 15.148505 6.298094 3.000000
vertex 13.959723 5.394034 3.000000
vertex 14.322641 5.711595 4.000000
endloop
endfacet
facet normal -0.556193 0.830588 0.027799
outer loop
vertex 15.148505 6.298094 3.000000
vertex 14.322641 5.711595 4.000000
vertex 15.500000 6.500000 4.000000
endloop
endfacet
facet normal -0.430580 0.902028 -0.030778
outer loop
vertex 16.525093 6.955203 3.000000
vertex 15.148505 6.298094 3.000000
vertex 15.500000 6.500000 4.000000
endloop
endfacet
facet normal -0.870625 0.490589 -0.036543
outer loop
vertex 12.977223 4.269211 3.000000
vertex 12.228390 2.940289 3.000000
vertex 12.468752 3.441337 4.000000
endloop
endfacet
facet normal -0.752703 0.657464 -0.034341
outer loop
vertex 12.977223 4.269211 3.000000
vertex 13.293001 4.682965 4.000000
vertex 13.959723 5.394034 3.000000
endloop
endfacet
facet normal -0.994216 -0.101086 -0.036267
outer loop
vertex 11.617588 -0.000000 3.000000
vertex 11.768659 -1.485836 3.000000
vertex 11.672437 -0.898227 4.000000
endloop
endfacet
facet normal -0.999146 -0.022291 0.034779
outer loop
vertex 11.617588 -0.000000 3.000000
vertex 11.672437 -0.898227 4.000000
vertex 11.639668 0.570532 4.000000
endloop
endfacet
facet normal -0.952766 -0.301155 -0.039282
outer loop
vertex 11.977026 -2.275487 4.000000
vertex 11.768659 -1.485836 3.000000
vertex 12.228390 -2.940289 3.000000
endloop
endfacet
facet normal -0.236074 0.971554 -0.018764
outer loop
vertex 16.525093 6.955203 3.000000
vertex 16.724512 7.022974 4.000000
vertex 18.007343 7.315370 3.000000
endloop
endfacet
facet normal 0.094735 -0.995503 0.000000
outer loop
vertex 19.500000 -7.365460 1.500000
vertex 19.898228 -7.327564 4.000000
vertex 19.500000 -7.365460 3.000000
endloop
endfacet
facet normal 0.189405 -0.981899 0.000000
outer loop
vertex 19.500000 -7.365460 1.500000
vertex 19.500000 -7.365460 -0.000000
vertex 21.275488 -7.022974 -0.000000
endloop
endfacet
facet normal 0.178380 -0.983869 -0.013500
outer loop
vertex 21.275488 -7.022974 -0.000000
vertex 19.898228 -7.327564 4.000000
vertex 19.500000 -7.365460 1.500000
endloop
endfacet
facet normal 0.392766 -0.919638 0.000000
outer loop
vertex 22.500000 -6.500000 -0.000000
vertex 22.500000 -6.500000 4.000000
vertex 21.275488 -7.022974 4.000000
endloop
endfacet
facet normal 0.392765 -0.919639 0.000000
outer loop
vertex 22.500000 -6.500000 -0.000000
vertex 21.275488 -7.022974 4.000000
vertex 21.275488 -7.022974 -0.000000
endloop
endfacet
facet normal -0.870574 -0.490559 -0.038115
outer loop
vertex 12.228390 -2.940289 3.000000
vertex 12.977223 -4.269211 3.000000
vertex 12.500000 -3.500000 4.000000
endloop
endfacet
facet normal -0.604145 -0.794414 0.062575
outer loop
vertex 13.959723 -5.394034 3.000000
vertex 15.148505 -6.298094 3.000000
vertex 15.558662 -6.531248 4.000000
endloop
endfacet
facet normal -0.551973 -0.831479 -0.062997
outer loop
vertex 13.959723 -5.394034 3.000000
vertex 15.558662 -6.531248 4.000000
vertex 14.317035 -5.706999 4.000000
endloop
endfacet
facet normal -0.430012 -0.900839 0.059832
outer loop
vertex 15.148505 -6.298094 3.000000
vertex 16.525093 -6.955203 3.000000
vertex 16.952442 -7.092779 4.000000
endloop
endfacet
facet normal -0.372956 -0.925717 -0.062863
outer loop
vertex 15.148505 -6.298094 3.000000
vertex 16.952442 -7.092779 4.000000
vertex 15.558662 -6.531248 4.000000
endloop
endfacet
facet normal -0.751647 -0.656541 0.063098
outer loop
vertex 12.977223 -4.269211 3.000000
vertex 13.959723 -5.394034 3.000000
vertex 14.317035 -5.706999 4.000000
endloop
endfacet
facet normal -0.705809 -0.705116 -0.068156
outer loop
vertex 12.977223 -4.269211 3.000000
vertex 14.317035 -5.706999 4.000000
vertex 13.288405 -4.677359 4.000000
endloop
endfacet
facet normal -0.033523 -0.998964 -0.030765
outer loop
vertex 18.007343 -7.315370 3.000000
vertex 19.500000 -7.365460 3.000000
vertex 18.429468 -7.360332 4.000000
endloop
endfacet
facet normal -0.235747 -0.970206 0.055892
outer loop
vertex 16.525093 -6.955203 3.000000
vertex 18.007343 -7.315370 3.000000
vertex 18.429468 -7.360332 4.000000
endloop
endfacet
facet normal -0.177932 -0.982267 -0.059099
outer loop
vertex 16.525093 -6.955203 3.000000
vertex 18.429468 -7.360332 4.000000
vertex 16.952442 -7.092779 4.000000
endloop
endfacet
facet normal -0.215931 0.976372 0.008484
outer loop
vertex 16.724512 7.022974 4.000000
vertex 18.101772 7.327564 4.000000
vertex 18.007343 7.315370 3.000000
endloop
endfacet
facet normal -0.392716 0.919521 0.015997
outer loop
vertex 16.525093 6.955203 3.000000
vertex 15.500000 6.500000 4.000000
vertex 16.724512 7.022974 4.000000
endloop
endfacet
facet normal -0.706402 0.707096 0.031821
outer loop
vertex 14.322641 5.711595 4.000000
vertex 13.959723 5.394034 3.000000
vertex 13.293001 4.682965 4.000000
endloop
endfacet
facet normal -0.952844 0.301179 -0.037151
outer loop
vertex 11.768659 1.485836 3.000000
vertex 11.907221 2.047557 4.000000
vertex 12.228390 2.940289 3.000000
endloop
endfacet
facet normal -0.832645 0.552748 0.034230
outer loop
vertex 12.468752 3.441337 4.000000
vertex 13.293001 4.682965 4.000000
vertex 12.977223 4.269211 3.000000
endloop
endfacet
facet normal -0.983341 0.178127 0.036197
outer loop
vertex 11.768659 1.485836 3.000000
vertex 11.639668 0.570532 4.000000
vertex 11.907221 2.047557 4.000000
endloop
endfacet
facet normal -0.994236 0.101087 -0.035722
outer loop
vertex 11.617588 -0.000000 3.000000
vertex 11.639668 0.570532 4.000000
vertex 11.768659 1.485836 3.000000
endloop
endfacet
facet normal -0.926961 0.373457 0.035686
outer loop
vertex 12.468752 3.441337 4.000000
vertex 12.228390 2.940289 3.000000
vertex 11.907221 2.047557 4.000000
endloop
endfacet
facet normal -0.975878 -0.215822 0.032918
outer loop
vertex 11.977026 -2.275487 4.000000
vertex 11.672437 -0.898227 4.000000
vertex 11.768659 -1.485836 3.000000
endloop
endfacet
facet normal -0.830497 -0.556134 0.031451
outer loop
vertex 13.288405 -4.677359 4.000000
vertex 12.500000 -3.500000 4.000000
vertex 12.977223 -4.269211 3.000000
endloop
endfacet
facet normal -0.919226 -0.392590 0.029934
outer loop
vertex 11.977026 -2.275487 4.000000
vertex 12.228390 -2.940289 3.000000
vertex 12.500000 -3.500000 4.000000
endloop
endfacet
facet normal 0.022296 -0.999331 0.028992
outer loop
vertex 19.898228 -7.327564 4.000000
vertex 18.429468 -7.360332 4.000000
vertex 19.500000 -7.365460 3.000000
endloop
endfacet
facet normal 0.215939 -0.976407 0.000000
outer loop
vertex 21.275488 -7.022974 4.000000
vertex 19.898228 -7.327564 4.000000
vertex 21.275488 -7.022974 -0.000000
endloop
endfacet
facet normal 0.000000 -0.000000 1.000000
outer loop
vertex 15.308794 -3.691206 4.000000
vertex 19.000000 -3.691206 4.000000
vertex 19.000000 -0.000000 4.000000
endloop
endfacet
facet normal 0.000000 -0.000000 1.000000
outer loop
vertex 15.308794 -3.691206 4.000000
vertex 19.000000 -0.000000 4.000000
vertex 15.308794 -0.000000 4.000000
endloop
endfacet
facet normal 0.000000 -0.000000 1.000000
outer loop
vertex 19.000000 -3.691206 4.000000
vertex 22.691206 -3.691206 4.000000
vertex 22.691206 -0.000000 4.000000
endloop
endfacet
facet normal 0.000000 -0.000000 1.000000
outer loop
vertex 19.000000 -3.691206 4.000000
vertex 22.691206 -0.000000 4.000000
vertex 19.000000 -0.000000 4.000000
endloop
endfacet
facet normal 0.000000 0.000000 1.000000
outer loop
vertex 19.000000 -0.000000 4.000000
vertex 22.691206 -0.000000 4.000000
vertex 22.691206 3.691206 4.000000
endloop
endfacet
facet normal 0.000000 0.000000 1.000000
outer loop
vertex 19.000000 -0.000000 4.000000
vertex 22.691206 3.691206 4.000000
vertex 19.000000 3.691206 4.000000
endloop
endfacet
facet normal 0.000000 0.000000 1.000000
outer loop
vertex 15.308794 -0.000000 4.000000
vertex 19.000000 -0.000000 4.000000
vertex 19.000000 3.691206 4.000000
endloop
endfacet
facet normal 0.000000 0.000000 1.000000
outer loop
vertex 15.308794 -0.000000 4.000000
vertex 19.000000 3.691206 4.000000
vertex 15.308794 3.691206 4.000000
endloop
endfacet
facet normal 0.000000 0.000000 1.000000
outer loop
vertex 24.711596 4.677359 4.000000
vertex 22.691206 3.691206 4.000000
vertex 25.500000 3.500000 4.000000
endloop
endfacet
facet normal 0.000000 0.000000 1.000000
outer loop
vertex 26.327564 0.898227 4.000000
vertex 26.022974 2.275487 4.000000
vertex 22.691206 -0.000000 4.000000
endloop
endfacet
facet normal 0.000000 0.000000 1.000000
outer loop
vertex 26.022974 2.275487 4.000000
vertex 25.500000 3.500000 4.000000
vertex 22.691206 3.691206 4.000000
endloop
endfacet
facet normal 0.000000 -0.000000 1.000000
outer loop
vertex 22.691206 3.691206 4.000000
vertex 24.711596 4.677359 4.000000
vertex 23.682964 5.706999 4.000000
endloop
endfacet
facet normal -0.000000 -0.000000 1.000000
outer loop
vertex 19.000000 3.691206 4.000000
vertex 21.047558 7.092779 4.000000
vertex 19.570532 7.360332 4.000000
endloop
endfacet
facet normal -0.000000 -0.000000 1.000000
outer loop
vertex 22.691206 3.691206 4.000000
vertex 22.441338 6.531248 4.000000
vertex 21.047558 7.092779 4.000000
endloop
endfacet
facet normal 0.000000 -0.000000 1.000000
outer loop
vertex 23.682964 5.706999 4.000000
vertex 22.441338 6.531248 4.000000
vertex 22.691206 3.691206 4.000000
endloop
endfacet
facet normal 0.000000 -0.000000 1.000000
outer loop
vertex 19.000000 3.691206 4.000000
vertex 22.691206 3.691206 4.000000
vertex 21.047558 7.092779 4.000000
endloop
endfacet
facet normal 0.000000 0.000000 1.000000
outer loop
vertex 22.691206 3.691206 4.000000
vertex 22.691206 -0.000000 4.000000
vertex 26.022974 2.275487 4.000000
endloop
endfacet
facet normal 0.000000 -0.000000 1.000000
outer loop
vertex 19.000000 3.691206 4.000000
vertex 19.570532 7.360332 4.000000
vertex 18.101772 7.327564 4.000000
endloop
endfacet
facet normal 0.000000 -0.000000 1.000000
outer loop
vertex 22.691206 -3.691206 4.000000
vertex 25.531248 -3.441338 4.000000
vertex 26.092779 -2.047557 4.000000
endloop
endfacet
facet normal -0.000000 0.000000 1.000000
outer loop
vertex 23.677359 -5.711595 4.000000
vertex 24.706999 -4.682965 4.000000
vertex 22.691206 -3.691206 4.000000
endloop
endfacet
facet normal 0.000000 0.000000 1.000000
outer loop
vertex 24.706999 -4.682965 4.000000
vertex 25.531248 -3.441338 4.000000
vertex 22.691206 -3.691206 4.000000
endloop
endfacet
facet normal 0.000000 0.000000 1.000000
outer loop
vertex 26.360332 -0.570532 4.000000
vertex 22.691206 -0.000000 4.000000
vertex 26.092779 -2.047557 4.000000
endloop
endfacet
facet normal 0.000000 -0.000000 1.000000
outer loop
vertex 26.092779 -2.047557 4.000000
vertex 22.691206 -0.000000 4.000000
vertex 22.691206 -3.691206 4.000000
endloop
endfacet
facet normal 0.000000 0.000000 1.000000
outer loop
vertex 22.500000 -6.500000 4.000000
vertex 22.691206 -3.691206 4.000000
vertex 21.275488 -7.022974 4.000000
endloop
endfacet
facet normal 0.000000 0.000000 1.000000
outer loop
vertex 19.000000 -3.691206 4.000000
vertex 19.898228 -7.327564 4.000000
vertex 21.275488 -7.022974 4.000000
endloop
endfacet
facet normal 0.000000 0.000000 1.000000
outer loop
vertex 19.000000 -3.691206 4.000000
vertex 21.275488 -7.022974 4.000000
vertex 22.691206 -3.691206 4.000000
endloop
endfacet
facet normal 0.000000 0.000000 1.000000
outer loop
vertex 23.677359 -5.711595 4.000000
vertex 22.691206 -3.691206 4.000000
vertex 22.500000 -6.500000 4.000000
endloop
endfacet
facet normal 0.000000 0.000000 1.000000
outer loop
vertex 22.691206 -0.000000 4.000000
vertex 26.360332 -0.570532 4.000000
vertex 26.327564 0.898227 4.000000
endloop
endfacet
facet normal 0.000000 -0.000000 1.000000
outer loop
vertex 19.000000 3.691206 4.000000
vertex 16.724512 7.022974 4.000000
vertex 15.308794 3.691206 4.000000
endloop
endfacet
facet normal 0.000000 -0.000000 1.000000
outer loop
vertex 14.322641 5.711595 4.000000
vertex 15.308794 3.691206 4.000000
vertex 15.500000 6.500000 4.000000
endloop
endfacet
facet normal 0.000000 0.000000 1.000000
outer loop
vertex 11.907221 2.047557 4.000000
vertex 15.308794 -0.000000 4.000000
vertex 15.308794 3.691206 4.000000
endloop
endfacet
facet normal 0.000000 -0.000000 1.000000
outer loop
vertex 15.500000 6.500000 4.000000
vertex 15.308794 3.691206 4.000000
vertex 16.724512 7.022974 4.000000
endloop
endfacet
facet normal 0.000000 0.000000 1.000000
outer loop
vertex 12.468752 3.441337 4.000000
vertex 15.308794 3.691206 4.000000
vertex 13.293001 4.682965 4.000000
endloop
endfacet
facet normal -0.000000 0.000000 1.000000
outer loop
vertex 11.907221 2.047557 4.000000
vertex 11.639668 0.570532 4.000000
vertex 15.308794 -0.000000 4.000000
endloop
endfacet
facet normal 0.000000 0.000000 1.000000
outer loop
vertex 11.907221 2.047557 4.000000
vertex 15.308794 3.691206 4.000000
vertex 12.468752 3.441337 4.000000
endloop
endfacet
facet normal 0.000000 -0.000000 1.000000
outer loop
vertex 14.322641 5.711595 4.000000
vertex 13.293001 4.682965 4.000000
vertex 15.308794 3.691206 4.000000
endloop
endfacet
facet normal 0.000000 0.000000 1.000000
outer loop
vertex 11.672437 -0.898227 4.000000
vertex 15.308794 -0.000000 4.000000
vertex 11.639668 0.570532 4.000000
endloop
endfacet
facet normal 0.000000 0.000000 1.000000
outer loop
vertex 16.952442 -7.092779 4.000000
vertex 19.000000 -3.691206 4.000000
vertex 15.308794 -3.691206 4.000000
endloop
endfacet
facet normal 0.000000 0.000000 1.000000
outer loop
vertex 18.429468 -7.360332 4.000000
vertex 19.000000 -3.691206 4.000000
vertex 16.952442 -7.092779 4.000000
endloop
endfacet
facet normal 0.000000 0.000000 1.000000
outer loop
vertex 15.558662 -6.531248 4.000000
vertex 16.952442 -7.092779 4.000000
vertex 15.308794 -3.691206 4.000000
endloop
endfacet
facet normal 0.000000 0.000000 1.000000
outer loop
vertex 15.558662 -6.531248 4.000000
vertex 15.308794 -3.691206 4.000000
vertex 14.317035 -5.706999 4.000000
endloop
endfacet
facet normal 0.000000 0.000000 1.000000
outer loop
vertex 19.898228 -7.327564 4.000000
vertex 19.000000 -3.691206 4.000000
vertex 18.429468 -7.360332 4.000000
endloop
endfacet
facet normal 0.000000 -0.000000 1.000000
outer loop
vertex 15.308794 -3.691206 4.000000
vertex 11.977026 -2.275487 4.000000
vertex 12.500000 -3.500000 4.000000
endloop
endfacet
facet normal 0.000000 0.000000 1.000000
outer loop
vertex 14.317035 -5.706999 4.000000
vertex 15.308794 -3.691206 4.000000
vertex 13.288405 -4.677359 4.000000
endloop
endfacet
facet normal -0.000000 0.000000 1.000000
outer loop
vertex 13.288405 -4.677359 4.000000
vertex 15.308794 -3.691206 4.000000
vertex 12.500000 -3.500000 4.000000
endloop
endfacet
facet normal 0.000000 -0.000000 1.000000
outer loop
vertex 15.308794 -3.691206 4.000000
vertex 15.308794 -0.000000 4.000000
vertex 11.977026 -2.275487 4.000000
endloop
endfacet
facet normal 0.000000 0.000000 1.000000
outer loop
vertex 15.308794 -0.000000 4.000000
vertex 11.672437 -0.898227 4.000000
vertex 11.977026 -2.275487 4.000000
endloop
endfacet
facet normal 0.000000 -0.000000 1.000000
outer loop
vertex 16.724512 7.022974 4.000000
vertex 19.000000 3.691206 4.000000
vertex 18.101772 7.327564 4.000000
endloop
endfacet
facet normal 0.630481 0.776205 0.000000
outer loop
vertex 6.981482 6.910783 1.000000
vertex 6.981482 6.910783 0.000000
vertex 5.332901 8.249859 0.000000
endloop
endfacet
facet normal 0.448745 0.893660 0.000000
outer loop
vertex 3.431705 9.204532 0.000000
vertex 3.431705 9.204532 2.000000
vertex 5.332901 8.249859 2.000000
endloop
endfacet
facet normal 0.448745 0.893660 0.000000
outer loop
vertex 3.431705 9.204532 0.000000
vertex 5.332901 8.249859 2.000000
vertex 5.332901 8.249859 0.000000
endloop
endfacet
facet normal 0.042010 0.999117 0.000000
outer loop
vertex -0.625268 9.803522 0.000000
vertex -0.625268 9.803522 2.000000
vertex 1.446019 9.716431 2.000000
endloop
endfacet
facet normal 0.042010 0.999117 0.000000
outer loop
vertex -0.625268 9.803522 0.000000
vertex 1.446019 9.716431 2.000000
vertex 1.446019 9.716431 0.000000
endloop
endfacet
facet normal -0.173107 0.984903 0.000000
outer loop
vertex -2.755088 9.429183 0.000000
vertex -2.755088 9.429183 2.000000
vertex -0.625268 9.803522 2.000000
endloop
endfacet
facet normal -0.173107 0.984903 0.000000
outer loop
vertex -2.755088 9.429183 0.000000
vertex -0.625268 9.803522 2.000000
vertex -0.625268 9.803522 0.000000
endloop
endfacet
facet normal 0.249633 0.968341 0.000000
outer loop
vertex 1.446019 9.716431 0.000000
vertex 1.446019 9.716431 2.000000
vertex 3.431705 9.204532 2.000000
endloop
endfacet
facet normal 0.249633 0.968341 0.000000
outer loop
vertex 1.446019 9.716431 0.000000
vertex 3.431705 9.204532 2.000000
vertex 3.431705 9.204532 0.000000
endloop
endfacet
facet normal -0.579470 0.814993 0.000000
outer loop
vertex -6.547462 7.323301 0.000000
vertex -6.547462 7.323301 2.000000
vertex -4.766695 8.589448 2.000000
endloop
endfacet
facet normal -0.579470 0.814994 0.000000
outer loop
vertex -6.547462 7.323301 0.000000
vertex -4.766695 8.589448 2.000000
vertex -4.766695 8.589448 0.000000
endloop
endfacet
facet normal -0.743656 0.668563 0.000000
outer loop
vertex -7.976351 5.733919 0.000000
vertex -7.976351 5.733919 2.000000
vertex -6.547462 7.323301 2.000000
endloop
endfacet
facet normal -0.743656 0.668563 0.000000
outer loop
vertex -7.976351 5.733919 0.000000
vertex -6.547462 7.323301 2.000000
vertex -6.547462 7.323301 0.000000
endloop
endfacet
facet normal -0.950806 0.309786 0.000000
outer loop
vertex -9.597209 2.096085 0.000000
vertex -9.597209 2.096085 2.000000
vertex -8.989952 3.959893 2.000000
endloop
endfacet
facet normal -0.950806 0.309788 0.000000
outer loop
vertex -9.597209 2.096085 0.000000
vertex -8.989952 3.959893 2.000000
vertex -8.989952 3.959893 0.000000
endloop
endfacet
facet normal -0.993962 0.109721 0.000000
outer loop
vertex -9.597209 2.096085 2.000000
vertex -9.597209 2.096085 0.000000
vertex -9.823326 0.047676 0.000000
endloop
endfacet
facet normal -0.993963 0.109720 0.000000
outer loop
vertex -9.597209 2.096085 2.000000
vertex -9.823326 0.047676 0.000000
vertex -9.823326 0.047676 2.000000
endloop
endfacet
facet normal -0.868270 0.496092 0.000000
outer loop
vertex -8.989952 3.959893 0.000000
vertex -8.989952 3.959893 2.000000
vertex -7.976351 5.733919 2.000000
endloop
endfacet
facet normal -0.868270 0.496092 0.000000
outer loop
vertex -8.989952 3.959893 0.000000
vertex -7.976351 5.733919 2.000000
vertex -7.976351 5.733919 0.000000
endloop
endfacet
facet normal -0.385227 0.922822 0.000000
outer loop
vertex -4.766695 8.589448 0.000000
vertex -4.766695 8.589448 2.000000
vertex -2.755088 9.429183 2.000000
endloop
endfacet
facet normal -0.385227 0.922822 0.000000
outer loop
vertex -4.766695 8.589448 0.000000
vertex -2.755088 9.429183 2.000000
vertex -2.755088 9.429183 0.000000
endloop
endfacet
facet normal 0.630481 0.776205 0.000000
outer loop
vertex 6.981482 6.910783 2.000000
vertex 6.981482 6.910783 1.000000
vertex 5.332901 8.249859 2.000000
endloop
endfacet
facet normal 0.630480 0.776205 0.000000
outer loop
vertex 5.332901 8.249859 2.000000
vertex 6.981482 6.910783 1.000000
vertex 5.332901 8.249859 0.000000
endloop
endfacet
facet normal -0.947407 -0.320032 0.000000
outer loop
vertex -8.905710 -4.145882 -0.000000
vertex -8.905710 -4.145882 2.000000
vertex -9.595519 -2.103809 2.000000
endloop
endfacet
facet normal -0.947407 -0.320033 0.000000
outer loop
vertex -8.905710 -4.145882 -0.000000
vertex -9.595519 -2.103809 2.000000
vertex -9.595519 -2.103809 -0.000000
endloop
endfacet
facet normal -0.853904 -0.520430 0.000000
outer loop
vertex -7.766373 -6.015269 -0.000000
vertex -7.766373 -6.015269 2.000000
vertex -8.905710 -4.145882 2.000000
endloop
endfacet
facet normal -0.853904 -0.520430 0.000000
outer loop
vertex -7.766373 -6.015269 -0.000000
vertex -8.905710 -4.145882 2.000000
vertex -8.905710 -4.145882 -0.000000
endloop
endfacet
facet normal -0.552811 -0.833306 0.000000
outer loop
vertex -4.534500 -8.714259 -0.000000
vertex -4.534500 -8.714259 2.000000
vertex -6.265632 -7.565835 2.000000
endloop
endfacet
facet normal -0.552812 -0.833306 0.000000
outer loop
vertex -4.534500 -8.714259 -0.000000
vertex -6.265632 -7.565835 2.000000
vertex -6.265632 -7.565835 -0.000000
endloop
endfacet
facet normal -0.366950 -0.930241 0.000000
outer loop
vertex -2.635925 -9.463186 -0.000000
vertex -2.635925 -9.463186 2.000000
vertex -4.534500 -8.714259 2.000000
endloop
endfacet
facet normal -0.366950 -0.930241 0.000000
outer loop
vertex -2.635925 -9.463186 -0.000000
vertex -4.534500 -8.714259 2.000000
vertex -4.534500 -8.714259 -0.000000
endloop
endfacet
facet normal -0.718557 -0.695468 0.000000
outer loop
vertex -6.265632 -7.565835 -0.000000
vertex -6.265632 -7.565835 2.000000
vertex -7.766373 -6.015269 2.000000
endloop
endfacet
facet normal -0.718558 -0.695468 0.000000
outer loop
vertex -6.265632 -7.565835 -0.000000
vertex -7.766373 -6.015269 2.000000
vertex -7.766373 -6.015269 -0.000000
endloop
endfacet
facet normal 0.036363 -0.999339 0.000000
outer loop
vertex 1.403001 -9.722735 -0.000000
vertex 1.403001 -9.722735 2.000000
vertex -0.692675 -9.798990 2.000000
endloop
endfacet
facet normal 0.036363 -0.999339 0.000000
outer loop
vertex 1.403001 -9.722735 -0.000000
vertex -0.692675 -9.798990 2.000000
vertex -0.692675 -9.798990 -0.000000
endloop
endfacet
facet normal 0.247434 -0.968905 0.000000
outer loop
vertex 3.430653 -9.204924 -0.000000
vertex 3.430653 -9.204924 2.000000
vertex 1.403001 -9.722735 2.000000
endloop
endfacet
facet normal 0.247434 -0.968905 0.000000
outer loop
vertex 3.430653 -9.204924 -0.000000
vertex 1.403001 -9.722735 2.000000
vertex 1.403001 -9.722735 -0.000000
endloop
endfacet
facet normal 0.630598 -0.776110 0.000000
outer loop
vertex 6.981482 -6.910783 1.000000
vertex 5.335392 -8.248248 -0.000000
vertex 6.981482 -6.910783 -0.000000
endloop
endfacet
facet normal 0.448829 -0.893618 0.000000
outer loop
vertex 5.335392 -8.248248 -0.000000
vertex 5.335392 -8.248248 2.000000
vertex 3.430653 -9.204924 2.000000
endloop
endfacet
facet normal 0.448829 -0.893618 0.000000
outer loop
vertex 5.335392 -8.248248 -0.000000
vertex 3.430653 -9.204924 2.000000
vertex 3.430653 -9.204924 -0.000000
endloop
endfacet
facet normal -0.170282 -0.985395 0.000000
outer loop
vertex -0.692675 -9.798990 -0.000000
vertex -0.692675 -9.798990 2.000000
vertex -2.635925 -9.463186 2.000000
endloop
endfacet
facet normal -0.170282 -0.985395 0.000000
outer loop
vertex -0.692675 -9.798990 -0.000000
vertex -2.635925 -9.463186 2.000000
vertex -2.635925 -9.463186 -0.000000
endloop
endfacet
facet normal 0.630597 -0.776110 0.000000
outer loop
vertex 5.335392 -8.248248 2.000000
vertex 5.335392 -8.248248 -0.000000
vertex 6.981482 -6.910783 1.000000
endloop
endfacet
facet normal -0.994441 -0.105295 0.000000
outer loop
vertex -9.595519 -2.103809 -0.000000
vertex -9.595519 -2.103809 2.000000
vertex -9.823326 0.047676 2.000000
endloop
endfacet
facet normal -0.994441 -0.105295 0.000000
outer loop
vertex -9.595519 -2.103809 -0.000000
vertex -9.823326 0.047676 2.000000
vertex -9.823326 0.047676 0.000000
endloop
endfacet
facet normal 0.630598 -0.776110 0.000000
outer loop
vertex 6.981482 -6.910783 1.000000
vertex 6.981482 -6.910783 2.000000
vertex 5.335392 -8.248248 2.000000
endloop
endfacet
facet normal -0.000000 0.000000 -1.000000
outer loop
vertex -5.622211 -4.911721 -0.000000
vertex -5.622211 -0.000000 -0.000000
vertex -1.420980 -0.000000 -0.000000
endloop
endfacet
facet normal 0.000000 0.000000 -1.000000
outer loop
vertex -5.622211 -4.911721 -0.000000
vertex -1.420980 -0.000000 -0.000000
vertex -1.420980 -4.911721 -0.000000
endloop
endfacet
facet normal 0.000000 0.000000 -1.000000
outer loop
vertex -1.420980 -4.911721 -0.000000
vertex -1.420980 -0.000000 -0.000000
vertex 2.780251 -0.000000 -0.000000
endloop
endfacet
facet normal 0.000000 0.000000 -1.000000
outer loop
vertex -1.420980 -4.911721 -0.000000
vertex 2.780251 -0.000000 -0.000000
vertex 2.780251 -4.911721 -0.000000
endloop
endfacet
facet normal 0.000000 0.000000 -1.000000
outer loop
vertex -1.420980 -0.000000 -0.000000
vertex -1.420980 4.911721 0.000000
vertex 2.780251 4.911721 0.000000
endloop
endfacet
facet normal 0.000000 0.000000 -1.000000
outer loop
vertex -1.420980 -0.000000 -0.000000
vertex 2.780251 4.911721 0.000000
vertex 2.780251 -0.000000 -0.000000
endloop
endfacet
facet normal 0.000000 0.000000 -1.000000
outer loop
vertex -5.622211 -0.000000 -0.000000
vertex -5.622211 4.911721 0.000000
vertex -1.420980 4.911721 0.000000
endloop
endfacet
facet normal 0.000000 0.000000 -1.000000
outer loop
vertex -5.622211 -0.000000 -0.000000
vertex -1.420980 4.911721 0.000000
vertex -1.420980 -0.000000 -0.000000
endloop
endfacet
facet normal 0.000000 0.000000 -1.000000
outer loop
vertex 5.663179 5.369752 0.000000
vertex 5.332901 8.249859 0.000000
vertex 6.981482 6.910783 0.000000
endloop
endfacet
facet normal 0.000000 0.000000 -1.000000
outer loop
vertex 5.663179 5.369752 0.000000
vertex 4.716908 3.620401 0.000000
vertex 2.780251 4.911721 0.000000
endloop
endfacet
facet normal 0.000000 0.000000 -1.000000
outer loop
vertex 2.780251 4.911721 0.000000
vertex 5.332901 8.249859 0.000000
vertex 5.663179 5.369752 0.000000
endloop
endfacet
facet normal 0.000000 0.000000 -1.000000
outer loop
vertex -1.420980 4.911721 0.000000
vertex 1.446019 9.716431 0.000000
vertex 2.780251 4.911721 0.000000
endloop
endfacet
facet normal 0.000000 0.000000 -1.000000
outer loop
vertex 4.170328 1.790872 0.000000
vertex 2.780251 4.911721 0.000000
vertex 4.716908 3.620401 0.000000
endloop
endfacet
facet normal 0.000000 0.000000 -1.000000
outer loop
vertex 3.431705 9.204532 0.000000
vertex 5.332901 8.249859 0.000000
vertex 2.780251 4.911721 0.000000
endloop
endfacet
facet normal -0.000000 0.000000 -1.000000
outer loop
vertex 1.446019 9.716431 0.000000
vertex 3.431705 9.204532 0.000000
vertex 2.780251 4.911721 0.000000
endloop
endfacet
facet normal 0.000000 0.000000 -1.000000
outer loop
vertex 2.780251 4.911721 0.000000
vertex 4.170328 1.790872 0.000000
vertex 2.780251 -0.000000 -0.000000
endloop
endfacet
facet normal 0.000000 0.000000 -1.000000
outer loop
vertex 4.716908 -3.620401 -0.000000
vertex 5.663179 -5.369752 -0.000000
vertex 2.780251 -4.911721 -0.000000
endloop
endfacet
facet normal 0.000000 0.000000 -1.000000
outer loop
vertex 5.335392 -8.248248 -0.000000
vertex 5.663179 -5.369752 -0.000000
vertex 6.981482 -6.910783 -0.000000
endloop
endfacet
facet normal 0.000000 0.000000 -1.000000
outer loop
vertex 5.663179 -5.369752 -0.000000
vertex 5.335392 -8.248248 -0.000000
vertex 2.780251 -4.911721 -0.000000
endloop
endfacet
facet normal 0.000000 0.000000 -1.000000
outer loop
vertex 2.780251 -4.911721 -0.000000
vertex 4.170328 -1.790872 -0.000000
vertex 4.716908 -3.620401 -0.000000
endloop
endfacet
facet normal 0.000000 0.000000 -1.000000
outer loop
vertex 4.170328 -1.790872 -0.000000
vertex 2.780251 -4.911721 -0.000000
vertex 2.780251 -0.000000 -0.000000
endloop
endfacet
facet normal -0.000000 0.000000 -1.000000
outer loop
vertex 4.170328 1.790872 0.000000
vertex 4.000000 0.000000 0.000000
vertex 2.780251 -0.000000 -0.000000
endloop
endfacet
facet normal -0.000000 0.000000 -1.000000
outer loop
vertex 1.403001 -9.722735 -0.000000
vertex 2.780251 -4.911721 -0.000000
vertex 3.430653 -9.204924 -0.000000
endloop
endfacet
facet normal 0.000000 0.000000 -1.000000
outer loop
vertex 2.780251 -4.911721 -0.000000
vertex 5.335392 -8.248248 -0.000000
vertex 3.430653 -9.204924 -0.000000
endloop
endfacet
facet normal 0.000000 0.000000 -1.000000
outer loop
vertex 2.780251 -4.911721 -0.000000
vertex 1.403001 -9.722735 -0.000000
vertex -1.420980 -4.911721 -0.000000
endloop
endfacet
facet normal 0.000000 0.000000 -1.000000
outer loop
vertex 2.780251 -0.000000 -0.000000
vertex 4.000000 0.000000 0.000000
vertex 4.170328 -1.790872 -0.000000
endloop
endfacet
facet normal 0.000000 0.000000 -1.000000
outer loop
vertex 1.446019 9.716431 0.000000
vertex -1.420980 4.911721 0.000000
vertex -0.625268 9.803522 0.000000
endloop
endfacet
facet normal -0.000000 0.000000 -1.000000
outer loop
vertex -1.420980 4.911721 0.000000
vertex -4.766695 8.589448 0.000000
vertex -2.755088 9.429183 0.000000
endloop
endfacet
facet normal 0.000000 0.000000 -1.000000
outer loop
vertex -4.766695 8.589448 0.000000
vertex -1.420980 4.911721 0.000000
vertex -5.622211 4.911721 0.000000
endloop
endfacet
facet normal 0.000000 0.000000 -1.000000
outer loop
vertex -5.622211 4.911721 0.000000
vertex -6.547462 7.323301 0.000000
vertex -4.766695 8.589448 0.000000
endloop
endfacet
facet normal 0.000000 0.000000 -1.000000
outer loop
vertex -0.625268 9.803522 0.000000
vertex -1.420980 4.911721 0.000000
vertex -2.755088 9.429183 0.000000
endloop
endfacet
facet normal 0.000000 0.000000 -1.000000
outer loop
vertex -7.976351 5.733919 0.000000
vertex -5.622211 4.911721 0.000000
vertex -8.989952 3.959893 0.000000
endloop
endfacet
facet normal 0.000000 0.000000 -1.000000
outer loop
vertex -9.597209 2.096085 0.000000
vertex -8.989952 3.959893 0.000000
vertex -5.622211 -0.000000 -0.000000
endloop
endfacet
facet normal 0.000000 0.000000 -1.000000
outer loop
vertex -8.989952 3.959893 0.000000
vertex -5.622211 4.911721 0.000000
vertex -5.622211 -0.000000 -0.000000
endloop
endfacet
facet normal -0.000000 0.000000 -1.000000
outer loop
vertex -6.547462 7.323301 0.000000
vertex -5.622211 4.911721 0.000000
vertex -7.976351 5.733919 0.000000
endloop
endfacet
facet normal -0.000000 0.000000 -1.000000
outer loop
vertex -9.597209 2.096085 0.000000
vertex -5.622211 -0.000000 -0.000000
vertex -9.823326 0.047676 0.000000
endloop
endfacet
facet normal 0.000000 0.000000 -1.000000
outer loop
vertex -5.622211 -4.911721 -0.000000
vertex -1.420980 -4.911721 -0.000000
vertex -4.534500 -8.714259 -0.000000
endloop
endfacet
facet normal 0.000000 0.000000 -1.000000
outer loop
vertex -0.692675 -9.798990 -0.000000
vertex -2.635925 -9.463186 -0.000000
vertex -1.420980 -4.911721 -0.000000
endloop
endfacet
facet normal -0.000000 0.000000 -1.000000
outer loop
vertex -4.534500 -8.714259 -0.000000
vertex -1.420980 -4.911721 -0.000000
vertex -2.635925 -9.463186 -0.000000
endloop
endfacet
facet normal -0.000000 0.000000 -1.000000
outer loop
vertex -1.420980 -4.911721 -0.000000
vertex 1.403001 -9.722735 -0.000000
vertex -0.692675 -9.798990 -0.000000
endloop
endfacet
facet normal 0.000000 0.000000 -1.000000
outer loop
vertex -5.622211 -0.000000 -0.000000
vertex -5.622211 -4.911721 -0.000000
vertex -8.905710 -4.145882 -0.000000
endloop
endfacet
facet normal 0.000000 0.000000 -1.000000
outer loop
vertex -6.265632 -7.565835 -0.000000
vertex -7.766373 -6.015269 -0.000000
vertex -5.622211 -4.911721 -0.000000
endloop
endfacet
facet normal 0.000000 0.000000 -1.000000
outer loop
vertex -8.905710 -4.145882 -0.000000
vertex -5.622211 -4.911721 -0.000000
vertex -7.766373 -6.015269 -0.000000
endloop
endfacet
facet normal 0.000000 0.000000 -1.000000
outer loop
vertex -4.534500 -8.714259 -0.000000
vertex -6.265632 -7.565835 -0.000000
vertex -5.622211 -4.911721 -0.000000
endloop
endfacet
facet normal 0.000000 0.000000 -1.000000
outer loop
vertex -9.595519 -2.103809 -0.000000
vertex -5.622211 -0.000000 -0.000000
vertex -8.905710 -4.145882 -0.000000
endloop
endfacet
facet normal -0.000000 0.000000 -1.000000
outer loop
vertex -9.595519 -2.103809 -0.000000
vertex -9.823326 0.047676 0.000000
vertex -5.622211 -0.000000 -0.000000
endloop
endfacet
facet normal 0.000000 -0.000000 1.000000
outer loop
vertex -1.420980 -0.000000 2.000000
vertex 2.780251 -0.000000 2.000000
vertex 2.780251 4.911721 2.000000
endloop
endfacet
facet normal 0.000000 -0.000000 1.000000
outer loop
vertex -1.420980 -0.000000 2.000000
vertex 2.780251 4.911721 2.000000
vertex -1.420980 4.911721 2.000000
endloop
endfacet
facet normal 0.000000 -0.000000 1.000000
outer loop
vertex -1.420980 -4.911721 2.000000
vertex 2.780251 -4.911721 2.000000
vertex 2.780251 -0.000000 2.000000
endloop
endfacet
facet normal 0.000000 -0.000000 1.000000
outer loop
vertex -1.420980 -4.911721 2.000000
vertex 2.780251 -0.000000 2.000000
vertex -1.420980 -0.000000 2.000000
endloop
endfacet
facet normal 0.000000 -0.000000 1.000000
outer loop
vertex -5.622211 -0.000000 2.000000
vertex -1.420980 -0.000000 2.000000
vertex -1.420980 4.911721 2.000000
endloop
endfacet
facet normal 0.000000 -0.000000 1.000000
outer loop
vertex -5.622211 -0.000000 2.000000
vertex -1.420980 4.911721 2.000000
vertex -5.622211 4.911721 2.000000
endloop
endfacet
facet normal 0.000000 -0.000000 1.000000
outer loop
vertex -5.622211 -4.911721 2.000000
vertex -1.420980 -4.911721 2.000000
vertex -1.420980 -0.000000 2.000000
endloop
endfacet
facet normal 0.000000 -0.000000 1.000000
outer loop
vertex -5.622211 -4.911721 2.000000
vertex -1.420980 -0.000000 2.000000
vertex -5.622211 -0.000000 2.000000
endloop
endfacet
facet normal 0.000000 -0.000000 1.000000
outer loop
vertex 5.730160 5.466222 2.000000
vertex 6.981482 6.910783 2.000000
vertex 5.332901 8.249859 2.000000
endloop
endfacet
facet normal -0.000000 0.000000 1.000000
outer loop
vertex 5.730160 5.466222 2.000000
vertex 2.780251 4.911721 2.000000
vertex 4.777159 3.763248 2.000000
endloop
endfacet
facet normal 0.000000 -0.000000 1.000000
outer loop
vertex 2.780251 4.911721 2.000000
vertex 5.730160 5.466222 2.000000
vertex 5.332901 8.249859 2.000000
endloop
endfacet
facet normal 0.000000 -0.000000 1.000000
outer loop
vertex -1.420980 4.911721 2.000000
vertex 2.780251 4.911721 2.000000
vertex 1.446019 9.716431 2.000000
endloop
endfacet
facet normal -0.000000 -0.000000 1.000000
outer loop
vertex 4.192240 1.901474 2.000000
vertex 4.777159 3.763248 2.000000
vertex 2.780251 4.911721 2.000000
endloop
endfacet
facet normal 0.000000 -0.000000 1.000000
outer loop
vertex 3.431705 9.204532 2.000000
vertex 2.780251 4.911721 2.000000
vertex 5.332901 8.249859 2.000000
endloop
endfacet
facet normal 0.000000 -0.000000 1.000000
outer loop
vertex 1.446019 9.716431 2.000000
vertex 2.780251 4.911721 2.000000
vertex 3.431705 9.204532 2.000000
endloop
endfacet
facet normal -0.000000 -0.000000 1.000000
outer loop
vertex 2.780251 4.911721 2.000000
vertex 2.780251 -0.000000 2.000000
vertex 4.192240 1.901474 2.000000
endloop
endfacet
facet normal 0.000000 -0.000000 1.000000
outer loop
vertex 4.777159 -3.763248 2.000000
vertex 2.780251 -4.911721 2.000000
vertex 5.730160 -5.466222 2.000000
endloop
endfacet
facet normal 0.000000 -0.000000 1.000000
outer loop
vertex 5.335392 -8.248248 2.000000
vertex 6.981482 -6.910783 2.000000
vertex 5.730160 -5.466222 2.000000
endloop
endfacet
facet normal -0.000000 -0.000000 1.000000
outer loop
vertex 5.730160 -5.466222 2.000000
vertex 2.780251 -4.911721 2.000000
vertex 5.335392 -8.248248 2.000000
endloop
endfacet
facet normal -0.000000 -0.000000 1.000000
outer loop
vertex 2.780251 -4.911721 2.000000
vertex 4.777159 -3.763248 2.000000
vertex 4.192240 -1.901474 2.000000
endloop
endfacet
facet normal 0.000000 -0.000000 1.000000
outer loop
vertex 4.192240 -1.901474 2.000000
vertex 2.780251 -0.000000 2.000000
vertex 2.780251 -4.911721 2.000000
endloop
endfacet
facet normal 0.000000 0.000000 1.000000
outer loop
vertex 4.192240 1.901474 2.000000
vertex 2.780251 -0.000000 2.000000
vertex 4.000000 -0.000000 2.000000
endloop
endfacet
facet normal -0.000000 -0.000000 1.000000
outer loop
vertex 1.403001 -9.722735 2.000000
vertex 3.430653 -9.204924 2.000000
vertex 2.780251 -4.911721 2.000000
endloop
endfacet
facet normal 0.000000 -0.000000 1.000000
outer loop
vertex 2.780251 -4.911721 2.000000
vertex 3.430653 -9.204924 2.000000
vertex 5.335392 -8.248248 2.000000
endloop
endfacet
facet normal 0.000000 -0.000000 1.000000
outer loop
vertex 2.780251 -4.911721 2.000000
vertex -1.420980 -4.911721 2.000000
vertex 1.403001 -9.722735 2.000000
endloop
endfacet
facet normal 0.000000 -0.000000 1.000000
outer loop
vertex 2.780251 -0.000000 2.000000
vertex 4.192240 -1.901474 2.000000
vertex 4.000000 -0.000000 2.000000
endloop
endfacet
facet normal 0.000000 -0.000000 1.000000
outer loop
vertex 1.446019 9.716431 2.000000
vertex -0.625268 9.803522 2.000000
vertex -1.420980 4.911721 2.000000
endloop
endfacet
facet normal 0.000000 -0.000000 1.000000
outer loop
vertex -1.420980 4.911721 2.000000
vertex -2.755088 9.429183 2.000000
vertex -4.766695 8.589448 2.000000
endloop
endfacet
facet normal 0.000000 -0.000000 1.000000
outer loop
vertex -4.766695 8.589448 2.000000
vertex -5.622211 4.911721 2.000000
vertex -1.420980 4.911721 2.000000
endloop
endfacet
facet normal -0.000000 -0.000000 1.000000
outer loop
vertex -5.622211 4.911721 2.000000
vertex -4.766695 8.589448 2.000000
vertex -6.547462 7.323301 2.000000
endloop
endfacet
facet normal 0.000000 -0.000000 1.000000
outer loop
vertex -0.625268 9.803522 2.000000
vertex -2.755088 9.429183 2.000000
vertex -1.420980 4.911721 2.000000
endloop
endfacet
facet normal 0.000000 0.000000 1.000000
outer loop
vertex -7.976351 5.733919 2.000000
vertex -8.989952 3.959893 2.000000
vertex -5.622211 4.911721 2.000000
endloop
endfacet
facet normal 0.000000 -0.000000 1.000000
outer loop
vertex -9.597209 2.096085 2.000000
vertex -5.622211 -0.000000 2.000000
vertex -8.989952 3.959893 2.000000
endloop
endfacet
facet normal 0.000000 -0.000000 1.000000
outer loop
vertex -8.989952 3.959893 2.000000
vertex -5.622211 -0.000000 2.000000
vertex -5.622211 4.911721 2.000000
endloop
endfacet
facet normal 0.000000 0.000000 1.000000
outer loop
vertex -6.547462 7.323301 2.000000
vertex -7.976351 5.733919 2.000000
vertex -5.622211 4.911721 2.000000
endloop
endfacet
facet normal 0.000000 0.000000 1.000000
outer loop
vertex -9.597209 2.096085 2.000000
vertex -9.823326 0.047676 2.000000
vertex -5.622211 -0.000000 2.000000
endloop
endfacet
facet normal 0.000000 -0.000000 1.000000
outer loop
vertex -5.622211 -4.911721 2.000000
vertex -4.534500 -8.714259 2.000000
vertex -1.420980 -4.911721 2.000000
endloop
endfacet
facet normal 0.000000 -0.000000 1.000000
outer loop
vertex -0.692675 -9.798990 2.000000
vertex -1.420980 -4.911721 2.000000
vertex -2.635925 -9.463186 2.000000
endloop
endfacet
facet normal 0.000000 -0.000000 1.000000
outer loop
vertex -4.534500 -8.714259 2.000000
vertex -2.635925 -9.463186 2.000000
vertex -1.420980 -4.911721 2.000000
endloop
endfacet
facet normal 0.000000 -0.000000 1.000000
outer loop
vertex -1.420980 -4.911721 2.000000
vertex -0.692675 -9.798990 2.000000
vertex 1.403001 -9.722735 2.000000
endloop
endfacet
facet normal -0.000000 -0.000000 1.000000
outer loop
vertex -5.622211 -0.000000 2.000000
vertex -8.905710 -4.145882 2.000000
vertex -5.622211 -4.911721 2.000000
endloop
endfacet
facet normal -0.000000 -0.000000 1.000000
outer loop
vertex -6.265632 -7.565835 2.000000
vertex -5.622211 -4.911721 2.000000
vertex -7.766373 -6.015269 2.000000
endloop
endfacet
facet normal 0.000000 0.000000 1.000000
outer loop
vertex -8.905710 -4.145882 2.000000
vertex -7.766373 -6.015269 2.000000
vertex -5.622211 -4.911721 2.000000
endloop
endfacet
facet normal 0.000000 -0.000000 1.000000
outer loop
vertex -4.534500 -8.714259 2.000000
vertex -5.622211 -4.911721 2.000000
vertex -6.265632 -7.565835 2.000000
endloop
endfacet
facet normal 0.000000 -0.000000 1.000000
outer loop
vertex -9.595519 -2.103809 2.000000
vertex -8.905710 -4.145882 2.000000
vertex -5.622211 -0.000000 2.000000
endloop
endfacet
facet normal -0.000000 -0.000000 1.000000
outer loop
vertex -9.595519 -2.103809 2.000000
vertex -5.622211 -0.000000 2.000000
vertex -9.823326 0.047676 2.000000
endloop
endfacet
facet normal 0.000000 0.000000 -1.000000
outer loop
vertex 15.308794 -3.691206 -0.000000
vertex 15.308794 0.000000 0.000000
vertex 19.000000 0.000000 0.000000
endloop
endfacet
facet normal 0.000000 0.000000 -1.000000
outer loop
vertex 15.308794 -3.691206 -0.000000
vertex 19.000000 0.000000 0.000000
vertex 19.000000 -3.691206 -0.000000
endloop
endfacet
facet normal 0.000000 0.000000 -1.000000
outer loop
vertex 19.000000 -3.691206 -0.000000
vertex 19.000000 0.000000 0.000000
vertex 22.691206 0.000000 0.000000
endloop
endfacet
facet normal 0.000000 0.000000 -1.000000
outer loop
vertex 19.000000 -3.691206 -0.000000
vertex 22.691206 0.000000 0.000000
vertex 22.691206 -3.691206 -0.000000
endloop
endfacet
facet normal 0.000000 0.000000 -1.000000
outer loop
vertex 20.845602 3.691206 0.000000
vertex 19.000000 0.000000 0.000000
vertex 19.000000 3.691206 0.000000
endloop
endfacet
facet normal 0.000000 0.000000 -1.000000
outer loop
vertex 22.691206 0.000000 0.000000
vertex 20.845602 3.691206 0.000000
vertex 22.691206 3.691206 0.000000
endloop
endfacet
facet normal 0.000000 0.000000 -1.000000
outer loop
vertex 19.000000 0.000000 0.000000
vertex 20.845602 3.691206 0.000000
vertex 22.691206 0.000000 0.000000
endloop
endfacet
facet normal 0.000000 0.000000 -1.000000
outer loop
vertex 19.922802 5.536808 0.000000
vertex 19.000000 3.691206 0.000000
vertex 19.000000 5.536808 0.000000
endloop
endfacet
facet normal 0.000000 0.000000 -1.000000
outer loop
vertex 20.845602 3.691206 0.000000
vertex 19.922802 5.536808 0.000000
vertex 20.845602 5.536808 0.000000
endloop
endfacet
facet normal 0.000000 0.000000 -1.000000
outer loop
vertex 19.000000 3.691206 0.000000
vertex 19.922802 5.536808 0.000000
vertex 20.845602 3.691206 0.000000
endloop
endfacet
facet normal 0.000000 0.000000 -1.000000
outer loop
vertex 21.768404 5.536808 0.000000
vertex 20.845602 3.691206 0.000000
vertex 20.845602 5.536808 0.000000
endloop
endfacet
facet normal 0.000000 0.000000 -1.000000
outer loop
vertex 22.691206 3.691206 0.000000
vertex 21.768404 5.536808 0.000000
vertex 22.691206 5.536808 0.000000
endloop
endfacet
facet normal 0.000000 0.000000 -1.000000
outer loop
vertex 20.845602 3.691206 0.000000
vertex 21.768404 5.536808 0.000000
vertex 22.691206 3.691206 0.000000
endloop
endfacet
facet normal 0.000000 0.000000 -1.000000
outer loop
vertex 20.845602 5.536808 0.000000
vertex 20.845602 6.459610 0.000000
vertex 21.768404 6.459610 0.000000
endloop
endfacet
facet normal 0.000000 0.000000 -1.000000
outer loop
vertex 20.845602 5.536808 0.000000
vertex 21.768404 6.459610 0.000000
vertex 21.768404 5.536808 0.000000
endloop
endfacet
facet normal 0.000000 0.000000 -1.000000
outer loop
vertex 19.461401 6.459610 0.000000
vertex 19.000000 5.536808 0.000000
vertex 19.000000 6.459610 0.000000
endloop
endfacet
facet normal 0.000000 0.000000 -1.000000
outer loop
vertex 19.922802 5.536808 0.000000
vertex 19.461401 6.459610 0.000000
vertex 19.922802 6.459610 0.000000
endloop
endfacet
facet normal 0.000000 0.000000 -1.000000
outer loop
vertex 19.000000 5.536808 0.000000
vertex 19.461401 6.459610 0.000000
vertex 19.922802 5.536808 0.000000
endloop
endfacet
facet normal 0.000000 0.000000 -1.000000
outer loop
vertex 20.384203 6.459610 0.000000
vertex 19.922802 5.536808 0.000000
vertex 19.922802 6.459610 0.000000
endloop
endfacet
facet normal 0.000000 0.000000 -1.000000
outer loop
vertex 20.845602 5.536808 0.000000
vertex 20.384203 6.459610 0.000000
vertex 20.845602 6.459610 0.000000
endloop
endfacet
facet normal 0.000000 0.000000 -1.000000
outer loop
vertex 19.922802 5.536808 0.000000
vertex 20.384203 6.459610 0.000000
vertex 20.845602 5.536808 0.000000
endloop
endfacet
facet normal 0.000000 0.000000 -1.000000
outer loop
vertex 19.922802 6.459610 0.000000
vertex 19.922802 6.921011 0.000000
vertex 20.384203 6.921011 0.000000
endloop
endfacet
facet normal 0.000000 0.000000 -1.000000
outer loop
vertex 19.922802 6.459610 0.000000
vertex 20.384203 6.921011 0.000000
vertex 20.384203 6.459610 0.000000
endloop
endfacet
facet normal 0.000000 0.000000 -1.000000
outer loop
vertex 20.384203 6.921011 0.000000
vertex 20.845602 6.459610 0.000000
vertex 20.384203 6.459610 0.000000
endloop
endfacet
facet normal 0.000000 0.000000 -1.000000
outer loop
vertex 19.230700 6.921011 0.000000
vertex 19.000000 6.459610 0.000000
vertex 19.000000 6.921011 0.000000
endloop
endfacet
facet normal 0.000000 0.000000 -1.000000
outer loop
vertex 19.461401 6.459610 0.000000
vertex 19.230700 6.921011 0.000000
vertex 19.461401 6.921011 0.000000
endloop
endfacet
facet normal 0.000000 0.000000 -1.000000
outer loop
vertex 19.000000 6.459610 0.000000
vertex 19.230700 6.921011 0.000000
vertex 19.461401 6.459610 0.000000
endloop
endfacet
facet normal 0.000000 0.000000 -1.000000
outer loop
vertex 19.692101 6.921011 0.000000
vertex 19.461401 6.459610 0.000000
vertex 19.461401 6.921011 0.000000
endloop
endfacet
facet normal 0.000000 0.000000 -1.000000
outer loop
vertex 19.922802 6.459610 0.000000
vertex 19.692101 6.921011 0.000000
vertex 19.922802 6.921011 0.000000
endloop
endfacet
facet normal 0.000000 0.000000 -1.000000
outer loop
vertex 19.461401 6.459610 0.000000
vertex 19.692101 6.921011 0.000000
vertex 19.922802 6.459610 0.000000
endloop
endfacet
facet normal 0.000000 0.000000 -1.000000
outer loop
vertex 19.576752 7.151711 0.000000
vertex 19.461401 6.921011 0.000000
vertex 19.461401 7.151711 0.000000
endloop
endfacet
facet normal 0.000000 0.000000 -1.000000
outer loop
vertex 19.692101 6.921011 0.000000
vertex 19.576752 7.151711 0.000000
vertex 19.692101 7.151711 0.000000
endloop
endfacet
facet normal 0.000000 0.000000 -1.000000
outer loop
vertex 19.461401 6.921011 0.000000
vertex 19.576752 7.151711 0.000000
vertex 19.692101 6.921011 0.000000
endloop
endfacet
facet normal 0.000000 0.000000 -1.000000
outer loop
vertex 19.692101 6.921011 0.000000
vertex 19.692101 7.151711 0.000000
vertex 19.922802 7.151711 0.000000
endloop
endfacet
facet normal 0.000000 0.000000 -1.000000
outer loop
vertex 19.692101 6.921011 0.000000
vertex 19.922802 7.151711 0.000000
vertex 19.922802 6.921011 0.000000
endloop
endfacet
facet normal 0.000000 0.000000 -1.000000
outer loop
vertex 19.461401 7.151711 0.000000
vertex 19.461401 7.267061 0.000000
vertex 19.576752 7.267061 0.000000
endloop
endfacet
facet normal 0.000000 0.000000 -1.000000
outer loop
vertex 19.461401 7.151711 0.000000
vertex 19.576752 7.267061 0.000000
vertex 19.576752 7.151711 0.000000
endloop
endfacet
facet normal 0.000000 0.000000 -1.000000
outer loop
vertex 19.576752 7.151711 0.000000
vertex 19.576752 7.267061 0.000000
vertex 19.692101 7.267061 0.000000
endloop
endfacet
facet normal 0.000000 0.000000 -1.000000
outer loop
vertex 19.576752 7.151711 0.000000
vertex 19.692101 7.267061 0.000000
vertex 19.692101 7.151711 0.000000
endloop
endfacet
facet normal 0.000000 0.000000 -1.000000
outer loop
vertex 19.000000 6.921011 0.000000
vertex 19.000000 7.151711 0.000000
vertex 19.230700 7.151711 0.000000
endloop
endfacet
facet normal 0.000000 0.000000 -1.000000
outer loop
vertex 19.000000 6.921011 0.000000
vertex 19.230700 7.151711 0.000000
vertex 19.230700 6.921011 0.000000
endloop
endfacet
facet normal 0.000000 0.000000 -1.000000
outer loop
vertex 19.230700 6.921011 0.000000
vertex 19.230700 7.151711 0.000000
vertex 19.461401 7.151711 0.000000
endloop
endfacet
facet normal 0.000000 0.000000 -1.000000
outer loop
vertex 19.230700 6.921011 0.000000
vertex 19.461401 7.151711 0.000000
vertex 19.461401 6.921011 0.000000
endloop
endfacet
facet normal 0.000000 0.000000 -1.000000
outer loop
vertex 17.154398 3.691206 0.000000
vertex 15.308794 0.000000 0.000000
vertex 15.308794 3.691206 0.000000
endloop
endfacet
facet normal 0.000000 0.000000 -1.000000
outer loop
vertex 19.000000 0.000000 0.000000
vertex 17.154398 3.691206 0.000000
vertex 19.000000 3.691206 0.000000
endloop
endfacet
facet normal 0.000000 0.000000 -1.000000
outer loop
vertex 15.308794 0.000000 0.000000
vertex 17.154398 3.691206 0.000000
vertex 19.000000 0.000000 0.000000
endloop
endfacet
facet normal 0.000000 0.000000 -1.000000
outer loop
vertex 15.308794 3.691206 0.000000
vertex 15.308794 5.536808 0.000000
vertex 17.154398 5.536808 0.000000
endloop
endfacet
facet normal 0.000000 0.000000 -1.000000
outer loop
vertex 15.308794 3.691206 0.000000
vertex 17.154398 5.536808 0.000000
vertex 17.154398 3.691206 0.000000
endloop
endfacet
facet normal 0.000000 0.000000 -1.000000
outer loop
vertex 18.077198 5.536808 0.000000
vertex 17.154398 3.691206 0.000000
vertex 17.154398 5.536808 0.000000
endloop
endfacet
facet normal 0.000000 0.000000 -1.000000
outer loop
vertex 19.000000 3.691206 0.000000
vertex 18.077198 5.536808 0.000000
vertex 19.000000 5.536808 0.000000
endloop
endfacet
facet normal 0.000000 0.000000 -1.000000
outer loop
vertex 17.154398 3.691206 0.000000
vertex 18.077198 5.536808 0.000000
vertex 19.000000 3.691206 0.000000
endloop
endfacet
facet normal 0.000000 0.000000 -1.000000
outer loop
vertex 17.154398 5.536808 0.000000
vertex 17.154398 6.459610 0.000000
vertex 18.077198 6.459610 0.000000
endloop
endfacet
facet normal 0.000000 0.000000 -1.000000
outer loop
vertex 17.154398 5.536808 0.000000
vertex 18.077198 6.459610 0.000000
vertex 18.077198 5.536808 0.000000
endloop
endfacet
facet normal 0.000000 0.000000 -1.000000
outer loop
vertex 18.538599 6.459610 0.000000
vertex 18.077198 5.536808 0.000000
vertex 18.077198 6.459610 0.000000
endloop
endfacet
facet normal 0.000000 0.000000 -1.000000
outer loop
vertex 19.000000 5.536808 0.000000
vertex 18.538599 6.459610 0.000000
vertex 19.000000 6.459610 0.000000
endloop
endfacet
facet normal 0.000000 0.000000 -1.000000
outer loop
vertex 18.077198 5.536808 0.000000
vertex 18.538599 6.459610 0.000000
vertex 19.000000 5.536808 0.000000
endloop
endfacet
facet normal 0.000000 0.000000 -1.000000
outer loop
vertex 18.077198 6.459610 0.000000
vertex 18.077198 6.921011 0.000000
vertex 18.538599 6.921011 0.000000
endloop
endfacet
facet normal 0.000000 0.000000 -1.000000
outer loop
vertex 18.077198 6.459610 0.000000
vertex 18.538599 6.921011 0.000000
vertex 18.538599 6.459610 0.000000
endloop
endfacet
facet normal 0.000000 0.000000 -1.000000
outer loop
vertex 18.538599 6.459610 0.000000
vertex 18.538599 6.921011 0.000000
vertex 19.000000 6.921011 0.000000
endloop
endfacet
facet normal 0.000000 0.000000 -1.000000
outer loop
vertex 18.538599 6.459610 0.000000
vertex 19.000000 6.921011 0.000000
vertex 19.000000 6.459610 0.000000
endloop
endfacet
facet normal 0.000000 0.000000 -1.000000
outer loop
vertex 21.047558 7.092779 0.000000
vertex 22.441338 6.531248 0.000000
vertex 21.768404 6.459610 0.000000
endloop
endfacet
facet normal 0.000000 0.000000 -1.000000
outer loop
vertex 19.922802 7.151711 0.000000
vertex 21.047558 7.092779 0.000000
vertex 20.384203 6.921011 0.000000
endloop
endfacet
facet normal -0.000000 0.000000 -1.000000
outer loop
vertex 20.384203 6.921011 0.000000
vertex 21.047558 7.092779 0.000000
vertex 20.845602 6.459610 0.000000
endloop
endfacet
facet normal -0.000000 0.000000 -1.000000
outer loop
vertex 22.691206 3.691206 0.000000
vertex 22.691206 5.536808 0.000000
vertex 23.682964 5.706999 0.000000
endloop
endfacet
facet normal 0.000000 0.000000 -1.000000
outer loop
vertex 22.691206 5.536808 0.000000
vertex 22.441338 6.531248 0.000000
vertex 23.682964 5.706999 0.000000
endloop
endfacet
facet normal 0.000000 0.000000 -1.000000
outer loop
vertex 21.768404 6.459610 0.000000
vertex 22.441338 6.531248 0.000000
vertex 21.768404 5.536808 0.000000
endloop
endfacet
facet normal 0.000000 0.000000 -1.000000
outer loop
vertex 21.047558 7.092779 0.000000
vertex 21.768404 6.459610 0.000000
vertex 20.845602 6.459610 0.000000
endloop
endfacet
facet normal 0.000000 0.000000 -1.000000
outer loop
vertex 21.768404 5.536808 0.000000
vertex 22.441338 6.531248 0.000000
vertex 22.691206 5.536808 0.000000
endloop
endfacet
facet normal 0.000000 0.000000 -1.000000
outer loop
vertex 19.570532 7.360332 0.000000
vertex 19.692101 7.267061 0.000000
vertex 19.576752 7.267061 0.000000
endloop
endfacet
facet normal -0.000000 0.000000 -1.000000
outer loop
vertex 19.922802 7.151711 0.000000
vertex 19.692101 7.267061 0.000000
vertex 19.570532 7.360332 0.000000
endloop
endfacet
facet normal -0.000000 0.000000 -1.000000
outer loop
vertex 19.500000 7.365460 0.000000
vertex 19.570532 7.360332 0.000000
vertex 19.576752 7.267061 0.000000
endloop
endfacet
facet normal 0.000000 0.000000 -1.000000
outer loop
vertex 20.384203 6.921011 0.000000
vertex 19.922802 6.921011 0.000000
vertex 19.922802 7.151711 0.000000
endloop
endfacet
facet normal 0.000000 0.000000 -1.000000
outer loop
vertex 19.692101 7.267061 0.000000
vertex 19.922802 7.151711 0.000000
vertex 19.692101 7.151711 0.000000
endloop
endfacet
facet normal 0.000000 0.000000 -1.000000
outer loop
vertex 21.047558 7.092779 0.000000
vertex 19.922802 7.151711 0.000000
vertex 19.570532 7.360332 0.000000
endloop
endfacet
facet normal -0.000000 0.000000 -1.000000
outer loop
vertex 26.022974 2.275487 0.000000
vertex 26.327564 0.898227 0.000000
vertex 22.691206 0.000000 0.000000
endloop
endfacet
facet normal 0.000000 0.000000 -1.000000
outer loop
vertex 26.022974 2.275487 0.000000
vertex 22.691206 3.691206 0.000000
vertex 25.500000 3.500000 0.000000
endloop
endfacet
facet normal 0.000000 0.000000 -1.000000
outer loop
vertex 26.360332 -0.570532 -0.000000
vertex 26.092779 -2.047557 -0.000000
vertex 22.691206 0.000000 0.000000
endloop
endfacet
facet normal -0.000000 0.000000 -1.000000
outer loop
vertex 26.092779 -2.047557 -0.000000
vertex 25.531248 -3.441337 -0.000000
vertex 22.691206 -3.691206 -0.000000
endloop
endfacet
facet normal 0.000000 0.000000 -1.000000
outer loop
vertex 26.327564 0.898227 0.000000
vertex 26.360332 -0.570532 -0.000000
vertex 22.691206 0.000000 0.000000
endloop
endfacet
facet normal -0.000000 0.000000 -1.000000
outer loop
vertex 24.711596 4.677359 0.000000
vertex 25.500000 3.500000 0.000000
vertex 22.691206 3.691206 0.000000
endloop
endfacet
facet normal 0.000000 0.000000 -1.000000
outer loop
vertex 22.691206 0.000000 0.000000
vertex 26.092779 -2.047557 -0.000000
vertex 22.691206 -3.691206 -0.000000
endloop
endfacet
facet normal 0.000000 0.000000 -1.000000
outer loop
vertex 21.275488 -7.022974 -0.000000
vertex 19.000000 -3.691206 -0.000000
vertex 22.691206 -3.691206 -0.000000
endloop
endfacet
facet normal 0.000000 0.000000 -1.000000
outer loop
vertex 22.691206 3.691206 0.000000
vertex 23.682964 5.706999 0.000000
vertex 24.711596 4.677359 0.000000
endloop
endfacet
facet normal -0.000000 0.000000 -1.000000
outer loop
vertex 25.531248 -3.441337 -0.000000
vertex 24.706999 -4.682965 -0.000000
vertex 22.691206 -3.691206 -0.000000
endloop
endfacet
facet normal 0.000000 0.000000 -1.000000
outer loop
vertex 23.677359 -5.711595 -0.000000
vertex 22.691206 -3.691206 -0.000000
vertex 24.706999 -4.682965 -0.000000
endloop
endfacet
facet normal -0.000000 0.000000 -1.000000
outer loop
vertex 22.691206 -3.691206 -0.000000
vertex 23.677359 -5.711595 -0.000000
vertex 22.500000 -6.500000 -0.000000
endloop
endfacet
facet normal 0.000000 0.000000 -1.000000
outer loop
vertex 22.691206 -3.691206 -0.000000
vertex 22.500000 -6.500000 -0.000000
vertex 21.275488 -7.022974 -0.000000
endloop
endfacet
facet normal -0.000000 0.000000 -1.000000
outer loop
vertex 22.691206 3.691206 0.000000
vertex 26.022974 2.275487 0.000000
vertex 22.691206 0.000000 0.000000
endloop
endfacet
facet normal 0.000000 0.000000 -1.000000
outer loop
vertex 19.461401 7.267061 0.000000
vertex 19.500000 7.365460 0.000000
vertex 19.576752 7.267061 0.000000
endloop
endfacet
facet normal 0.000000 0.000000 -1.000000
outer loop
vertex 19.461401 7.151711 0.000000
vertex 19.230700 7.151711 0.000000
vertex 19.461401 7.267061 0.000000
endloop
endfacet
facet normal -0.000000 0.000000 -1.000000
outer loop
vertex 19.230700 7.151711 0.000000
vertex 19.500000 7.365460 0.000000
vertex 19.461401 7.267061 0.000000
endloop
endfacet
facet normal 0.000000 0.000000 -1.000000
outer loop
vertex 18.538599 6.921011 0.000000
vertex 19.000000 7.151711 0.000000
vertex 19.000000 6.921011 0.000000
endloop
endfacet
facet normal 0.000000 0.000000 -1.000000
outer loop
vertex 19.000000 7.151711 0.000000
vertex 18.538599 6.921011 0.000000
vertex 18.077198 6.921011 0.000000
endloop
endfacet
facet normal 0.000000 0.000000 -1.000000
outer loop
vertex 18.077198 6.921011 0.000000
vertex 17.364584 7.198987 0.000000
vertex 19.000000 7.151711 0.000000
endloop
endfacet
facet normal 0.000000 0.000000 -1.000000
outer loop
vertex 19.500000 7.365460 0.000000
vertex 19.230700 7.151711 0.000000
vertex 19.000000 7.151711 0.000000
endloop
endfacet
facet normal 0.000000 0.000000 -1.000000
outer loop
vertex 17.154398 6.459610 0.000000
vertex 18.077198 6.921011 0.000000
vertex 18.077198 6.459610 0.000000
endloop
endfacet
facet normal 0.000000 0.000000 -1.000000
outer loop
vertex 17.364584 7.198987 0.000000
vertex 18.077198 6.921011 0.000000
vertex 17.154398 6.459610 0.000000
endloop
endfacet
facet normal -0.000000 0.000000 -1.000000
outer loop
vertex 15.500000 6.500000 0.000000
vertex 17.364584 7.198987 0.000000
vertex 17.154398 6.459610 0.000000
endloop
endfacet
facet normal -0.000000 0.000000 -1.000000
outer loop
vertex 17.154398 5.536808 0.000000
vertex 15.500000 6.500000 0.000000
vertex 17.154398 6.459610 0.000000
endloop
endfacet
facet normal 0.000000 0.000000 -1.000000
outer loop
vertex 15.308794 3.691206 0.000000
vertex 14.375671 5.754614 0.000000
vertex 15.308794 5.536808 0.000000
endloop
endfacet
facet normal 0.000000 0.000000 -1.000000
outer loop
vertex 15.308794 5.536808 0.000000
vertex 15.500000 6.500000 0.000000
vertex 17.154398 5.536808 0.000000
endloop
endfacet
facet normal 0.000000 0.000000 -1.000000
outer loop
vertex 15.308794 5.536808 0.000000
vertex 14.375671 5.754614 0.000000
vertex 15.500000 6.500000 0.000000
endloop
endfacet
facet normal 0.000000 0.000000 -1.000000
outer loop
vertex 19.000000 7.151711 0.000000
vertex 17.364584 7.198987 0.000000
vertex 19.500000 7.365460 0.000000
endloop
endfacet
facet normal -0.000000 0.000000 -1.000000
outer loop
vertex 11.928932 2.121320 0.000000
vertex 15.308794 3.691206 0.000000
vertex 15.308794 0.000000 0.000000
endloop
endfacet
facet normal 0.000000 0.000000 -1.000000
outer loop
vertex 17.344133 -7.194311 -0.000000
vertex 19.000000 -3.691206 -0.000000
vertex 19.500000 -7.365460 -0.000000
endloop
endfacet
facet normal 0.000000 0.000000 -1.000000
outer loop
vertex 13.652781 -5.089916 -0.000000
vertex 15.308794 -3.691206 -0.000000
vertex 15.312278 -6.395366 -0.000000
endloop
endfacet
facet normal 0.000000 0.000000 -1.000000
outer loop
vertex 17.344133 -7.194311 -0.000000
vertex 15.312278 -6.395366 -0.000000
vertex 15.308794 -3.691206 -0.000000
endloop
endfacet
facet normal 0.000000 0.000000 -1.000000
outer loop
vertex 17.344133 -7.194311 -0.000000
vertex 15.308794 -3.691206 -0.000000
vertex 19.000000 -3.691206 -0.000000
endloop
endfacet
facet normal -0.000000 0.000000 -1.000000
outer loop
vertex 15.308794 -3.691206 -0.000000
vertex 11.971644 -2.258809 -0.000000
vertex 15.308794 0.000000 0.000000
endloop
endfacet
facet normal -0.000000 0.000000 -1.000000
outer loop
vertex 19.000000 -3.691206 -0.000000
vertex 21.275488 -7.022974 -0.000000
vertex 19.500000 -7.365460 -0.000000
endloop
endfacet
facet normal 0.000000 0.000000 -1.000000
outer loop
vertex 11.928932 2.121320 0.000000
vertex 12.513652 3.525237 0.000000
vertex 15.308794 3.691206 0.000000
endloop
endfacet
facet normal 0.000000 0.000000 -1.000000
outer loop
vertex 11.928932 2.121320 0.000000
vertex 15.308794 0.000000 0.000000
vertex 11.644295 0.627379 0.000000
endloop
endfacet
facet normal 0.000000 0.000000 -1.000000
outer loop
vertex 15.308794 0.000000 0.000000
vertex 11.668044 -0.861643 -0.000000
vertex 11.644295 0.627379 0.000000
endloop
endfacet
facet normal 0.000000 0.000000 -1.000000
outer loop
vertex 13.652781 -5.089916 -0.000000
vertex 12.500000 -3.500000 -0.000000
vertex 15.308794 -3.691206 -0.000000
endloop
endfacet
facet normal -0.000000 0.000000 -1.000000
outer loop
vertex 15.308794 -3.691206 -0.000000
vertex 12.500000 -3.500000 -0.000000
vertex 11.971644 -2.258809 -0.000000
endloop
endfacet
facet normal 0.000000 0.000000 -1.000000
outer loop
vertex 11.668044 -0.861643 -0.000000
vertex 15.308794 0.000000 0.000000
vertex 11.971644 -2.258809 -0.000000
endloop
endfacet
facet normal 0.000000 0.000000 -1.000000
outer loop
vertex 13.353126 4.755292 0.000000
vertex 15.308794 3.691206 0.000000
vertex 12.513652 3.525237 0.000000
endloop
endfacet
facet normal -0.000000 0.000000 -1.000000
outer loop
vertex 13.353126 4.755292 0.000000
vertex 14.375671 5.754614 0.000000
vertex 15.308794 3.691206 0.000000
endloop
endfacet
facet normal 0.554540 0.832157 0.000000
outer loop
vertex 19.500000 7.365460 1.500000
vertex 19.500000 7.365460 0.000000
vertex 17.987968 8.373060 0.000000
endloop
endfacet
facet normal 0.554540 0.832157 0.000000
outer loop
vertex 17.987968 8.373060 0.000000
vertex 17.987968 8.373060 3.000000
vertex 19.500000 7.365460 3.000000
endloop
endfacet
facet normal 0.554539 0.832158 0.000000
outer loop
vertex 17.987968 8.373060 0.000000
vertex 19.500000 7.365460 3.000000
vertex 19.500000 7.365460 1.500000
endloop
endfacet
facet normal 0.197858 0.980231 0.000000
outer loop
vertex 14.486067 9.448687 0.000000
vertex 14.486067 9.448687 3.000000
vertex 16.256222 9.091383 3.000000
endloop
endfacet
facet normal 0.197858 0.980231 0.000000
outer loop
vertex 14.486067 9.448687 0.000000
vertex 16.256222 9.091383 3.000000
vertex 16.256222 9.091383 0.000000
endloop
endfacet
facet normal 0.383143 0.923689 0.000000
outer loop
vertex 16.256222 9.091383 0.000000
vertex 16.256222 9.091383 3.000000
vertex 17.987968 8.373060 3.000000
endloop
endfacet
facet normal 0.383143 0.923689 0.000000
outer loop
vertex 16.256222 9.091383 0.000000
vertex 17.987968 8.373060 3.000000
vertex 17.987968 8.373060 0.000000
endloop
endfacet
facet normal 0.008833 0.999961 0.000000
outer loop
vertex 12.681006 9.464631 0.000000
vertex 12.681006 9.464631 3.000000
vertex 14.486067 9.448687 3.000000
endloop
endfacet
facet normal 0.008833 0.999961 0.000000
outer loop
vertex 12.681006 9.464631 0.000000
vertex 14.486067 9.448687 3.000000
vertex 14.486067 9.448687 0.000000
endloop
endfacet
facet normal -0.357620 0.933867 0.000000
outer loop
vertex 9.252008 8.497327 0.000000
vertex 9.252008 8.497327 3.000000
vertex 10.985728 9.161246 3.000000
endloop
endfacet
facet normal -0.357620 0.933867 0.000000
outer loop
vertex 9.252008 8.497327 0.000000
vertex 10.985728 9.161246 3.000000
vertex 10.985728 9.161246 0.000000
endloop
endfacet
facet normal -0.532877 0.846193 0.000000
outer loop
vertex 7.672318 7.502542 0.000000
vertex 7.672318 7.502542 3.000000
vertex 9.252008 8.497327 3.000000
endloop
endfacet
facet normal -0.532877 0.846193 0.000000
outer loop
vertex 7.672318 7.502542 0.000000
vertex 9.252008 8.497327 3.000000
vertex 9.252008 8.497327 0.000000
endloop
endfacet
facet normal -0.650546 0.759467 0.000000
outer loop
vertex 7.672318 7.502542 0.000000
vertex 6.981482 6.910783 0.000000
vertex 6.981482 6.910783 1.000000
endloop
endfacet
facet normal -0.650546 0.759467 0.000000
outer loop
vertex 7.672318 7.502542 0.000000
vertex 6.981482 6.910783 1.000000
vertex 6.981482 6.910783 2.000000
endloop
endfacet
facet normal -0.176160 0.984362 0.000000
outer loop
vertex 10.985728 9.161246 0.000000
vertex 10.985728 9.161246 3.000000
vertex 12.681006 9.464631 3.000000
endloop
endfacet
facet normal -0.176160 0.984361 0.000000
outer loop
vertex 10.985728 9.161246 0.000000
vertex 12.681006 9.464631 3.000000
vertex 12.681006 9.464631 0.000000
endloop
endfacet
facet normal -0.650545 0.759467 0.000000
outer loop
vertex 7.672318 7.502542 0.000000
vertex 6.981482 6.910783 2.000000
vertex 7.672318 7.502542 3.000000
endloop
endfacet
facet normal -0.866592 0.484954 0.117636
outer loop
vertex 5.730160 5.466222 2.000000
vertex 4.777159 3.763248 2.000000
vertex 4.486619 3.001495 3.000000
endloop
endfacet
facet normal -0.905596 0.401856 -0.135678
outer loop
vertex 5.730160 5.466222 2.000000
vertex 4.486619 3.001495 3.000000
vertex 5.226755 4.669414 3.000000
endloop
endfacet
facet normal -0.688100 0.724101 0.046871
outer loop
vertex 6.304137 6.202384 3.000000
vertex 7.672318 7.502542 3.000000
vertex 6.981482 6.910783 2.000000
endloop
endfacet
facet normal -0.754978 0.653984 -0.048098
outer loop
vertex 6.304137 6.202384 3.000000
vertex 6.981482 6.910783 2.000000
vertex 5.730160 5.466222 2.000000
endloop
endfacet
facet normal -0.817276 0.574387 0.046256
outer loop
vertex 5.730160 5.466222 2.000000
vertex 5.226755 4.669414 3.000000
vertex 6.304137 6.202384 3.000000
endloop
endfacet
facet normal -0.993865 0.100480 0.046217
outer loop
vertex 4.192240 1.901474 2.000000
vertex 4.000000 -0.000000 2.000000
vertex 4.007740 -0.383409 3.000000
endloop
endfacet
facet normal -0.996139 0.048374 -0.073258
outer loop
vertex 4.192240 1.901474 2.000000
vertex 4.007740 -0.383409 3.000000
vertex 4.089555 1.301353 3.000000
endloop
endfacet
facet normal -0.953924 -0.299697 0.014521
outer loop
vertex 4.192240 -1.901474 2.000000
vertex 4.777159 -3.763248 2.000000
vertex 4.830475 -3.884501 3.000000
endloop
endfacet
facet normal -0.947538 -0.318511 -0.026864
outer loop
vertex 4.192240 -1.901474 2.000000
vertex 4.830475 -3.884501 3.000000
vertex 4.244394 -2.140972 3.000000
endloop
endfacet
facet normal -0.872640 -0.488338 0.005132
outer loop
vertex 4.777159 -3.763248 2.000000
vertex 5.730160 -5.466222 2.000000
vertex 5.758315 -5.506025 3.000000
endloop
endfacet
facet normal -0.867869 -0.496597 -0.013942
outer loop
vertex 4.777159 -3.763248 2.000000
vertex 5.758315 -5.506025 3.000000
vertex 4.830475 -3.884501 3.000000
endloop
endfacet
facet normal -0.994544 -0.100549 0.027789
outer loop
vertex 4.000000 -0.000000 2.000000
vertex 4.192240 -1.901474 2.000000
vertex 4.244394 -2.140972 3.000000
endloop
endfacet
facet normal -0.990120 -0.133319 -0.043452
outer loop
vertex 4.000000 -0.000000 2.000000
vertex 4.244394 -2.140972 3.000000
vertex 4.007740 -0.383409 3.000000
endloop
endfacet
facet normal -0.609867 -0.792504 0.000000
outer loop
vertex 6.981482 -6.910783 2.000000
vertex 6.981482 -6.910783 1.000000
vertex 8.489290 -8.071108 -0.000000
endloop
endfacet
facet normal -0.265575 -0.964090 0.000000
outer loop
vertex 11.838678 -9.353609 -0.000000
vertex 11.838678 -9.353609 3.000000
vertex 10.137218 -8.884913 3.000000
endloop
endfacet
facet normal -0.265575 -0.964090 0.000000
outer loop
vertex 11.838678 -9.353609 -0.000000
vertex 10.137218 -8.884913 3.000000
vertex 10.137218 -8.884913 -0.000000
endloop
endfacet
facet normal -0.442786 -0.896627 0.000000
outer loop
vertex 10.137218 -8.884913 -0.000000
vertex 10.137218 -8.884913 3.000000
vertex 8.489290 -8.071108 3.000000
endloop
endfacet
facet normal -0.442787 -0.896627 0.000000
outer loop
vertex 10.137218 -8.884913 -0.000000
vertex 8.489290 -8.071108 3.000000
vertex 8.489290 -8.071108 -0.000000
endloop
endfacet
facet normal -0.087777 -0.996140 0.000000
outer loop
vertex 13.500000 -9.500000 -0.000000
vertex 13.500000 -9.500000 1.500000
vertex 11.838678 -9.353609 -0.000000
endloop
endfacet
facet normal -0.609867 -0.792504 0.000000
outer loop
vertex 6.981482 -6.910783 -0.000000
vertex 8.489290 -8.071108 -0.000000
vertex 6.981482 -6.910783 1.000000
endloop
endfacet
facet normal -0.087777 -0.996140 0.000000
outer loop
vertex 11.838678 -9.353609 3.000000
vertex 11.838678 -9.353609 -0.000000
vertex 13.500000 -9.500000 1.500000
endloop
endfacet
facet normal -0.087777 -0.996140 0.000000
outer loop
vertex 11.838678 -9.353609 3.000000
vertex 13.500000 -9.500000 1.500000
vertex 13.500000 -9.500000 3.000000
endloop
endfacet
facet normal -0.967990 0.226072 -0.109028
outer loop
vertex 4.089555 1.301353 3.000000
vertex 4.486619 3.001495 3.000000
vertex 4.777159 3.763248 2.000000
endloop
endfacet
facet normal -0.950840 0.298728 0.081636
outer loop
vertex 4.089555 1.301353 3.000000
vertex 4.777159 3.763248 2.000000
vertex 4.192240 1.901474 2.000000
endloop
endfacet
facet normal -0.608905 -0.793240 -0.002305
outer loop
vertex 6.998243 -6.926555 3.000000
vertex 6.981482 -6.910783 2.000000
vertex 8.489290 -8.071108 3.000000
endloop
endfacet
facet normal -0.609867 -0.792504 0.000000
outer loop
vertex 8.489290 -8.071108 3.000000
vertex 6.981482 -6.910783 2.000000
vertex 8.489290 -8.071108 -0.000000
endloop
endfacet
facet normal -0.753364 -0.657585 -0.004963
outer loop
vertex 6.998243 -6.926555 3.000000
vertex 5.758315 -5.506025 3.000000
vertex 5.730160 -5.466222 2.000000
endloop
endfacet
facet normal -0.755850 -0.654740 0.002343
outer loop
vertex 6.998243 -6.926555 3.000000
vertex 5.730160 -5.466222 2.000000
vertex 6.981482 -6.910783 2.000000
endloop
endfacet
facet normal 0.085020 -0.996379 0.000000
outer loop
vertex 13.500000 -9.500000 1.500000
vertex 13.500000 -9.500000 -0.000000
vertex 15.109529 -9.362660 -0.000000
endloop
endfacet
facet normal 0.250996 -0.967988 0.000000
outer loop
vertex 15.109529 -9.362660 3.000000
vertex 15.109529 -9.362660 -0.000000
vertex 16.642799 -8.965089 -0.000000
endloop
endfacet
facet normal 0.250996 -0.967988 0.000000
outer loop
vertex 15.109529 -9.362660 3.000000
vertex 16.642799 -8.965089 -0.000000
vertex 16.642799 -8.965089 3.000000
endloop
endfacet
facet normal 0.085020 -0.996379 0.000000
outer loop
vertex 13.500000 -9.500000 3.000000
vertex 13.500000 -9.500000 1.500000
vertex 15.109529 -9.362660 3.000000
endloop
endfacet
facet normal 0.085020 -0.996379 0.000000
outer loop
vertex 15.109529 -9.362660 -0.000000
vertex 15.109529 -9.362660 3.000000
vertex 13.500000 -9.500000 1.500000
endloop
endfacet
facet normal 0.561287 -0.827621 0.000000
outer loop
vertex 19.500000 -7.365460 1.500000
vertex 18.123537 -8.298970 -0.000000
vertex 19.500000 -7.365460 -0.000000
endloop
endfacet
facet normal 0.561289 -0.827620 0.000000
outer loop
vertex 18.123537 -8.298970 3.000000
vertex 18.123537 -8.298970 -0.000000
vertex 19.500000 -7.365460 1.500000
endloop
endfacet
facet normal 0.410255 -0.911971 0.000000
outer loop
vertex 18.123537 -8.298970 -0.000000
vertex 18.123537 -8.298970 3.000000
vertex 16.642799 -8.965089 3.000000
endloop
endfacet
facet normal 0.410256 -0.911970 0.000000
outer loop
vertex 18.123537 -8.298970 -0.000000
vertex 16.642799 -8.965089 3.000000
vertex 16.642799 -8.965089 -0.000000
endloop
endfacet
facet normal 0.561288 -0.827621 0.000000
outer loop
vertex 19.500000 -7.365460 1.500000
vertex 19.500000 -7.365460 3.000000
vertex 18.123537 -8.298970 3.000000
endloop
endfacet
facet normal 0.000000 -0.000000 1.000000
outer loop
vertex 16.525093 6.955203 3.000000
vertex 17.987968 8.373060 3.000000
vertex 16.256222 9.091383 3.000000
endloop
endfacet
facet normal -0.000000 -0.000000 1.000000
outer loop
vertex 17.987968 8.373060 3.000000
vertex 18.007343 7.315370 3.000000
vertex 19.500000 7.365460 3.000000
endloop
endfacet
facet normal -0.000000 -0.000000 1.000000
outer loop
vertex 17.987968 8.373060 3.000000
vertex 16.525093 6.955203 3.000000
vertex 18.007343 7.315370 3.000000
endloop
endfacet
facet normal 0.000000 -0.000000 1.000000
outer loop
vertex 16.525093 6.955203 3.000000
vertex 16.256222 9.091383 3.000000
vertex 15.148505 6.298094 3.000000
endloop
endfacet
facet normal -0.000000 -0.000000 1.000000
outer loop
vertex 13.959723 5.394034 3.000000
vertex 14.486067 9.448687 3.000000
vertex 12.681006 9.464631 3.000000
endloop
endfacet
facet normal 0.000000 -0.000000 1.000000
outer loop
vertex 14.486067 9.448687 3.000000
vertex 13.959723 5.394034 3.000000
vertex 15.148505 6.298094 3.000000
endloop
endfacet
facet normal 0.000000 -0.000000 1.000000
outer loop
vertex 13.959723 5.394034 3.000000
vertex 10.985728 9.161246 3.000000
vertex 12.977223 4.269211 3.000000
endloop
endfacet
facet normal 0.000000 -0.000000 1.000000
outer loop
vertex 16.256222 9.091383 3.000000
vertex 14.486067 9.448687 3.000000
vertex 15.148505 6.298094 3.000000
endloop
endfacet
facet normal 0.000000 -0.000000 1.000000
outer loop
vertex 16.642799 -8.965089 3.000000
vertex 18.007343 -7.315370 3.000000
vertex 16.525093 -6.955203 3.000000
endloop
endfacet
facet normal 0.000000 -0.000000 1.000000
outer loop
vertex 19.500000 -7.365460 3.000000
vertex 18.007343 -7.315370 3.000000
vertex 18.123537 -8.298970 3.000000
endloop
endfacet
facet normal 0.000000 -0.000000 1.000000
outer loop
vertex 16.642799 -8.965089 3.000000
vertex 18.123537 -8.298970 3.000000
vertex 18.007343 -7.315370 3.000000
endloop
endfacet
facet normal 0.000000 -0.000000 1.000000
outer loop
vertex 16.642799 -8.965089 3.000000
vertex 16.525093 -6.955203 3.000000
vertex 15.109529 -9.362660 3.000000
endloop
endfacet
facet normal 0.000000 -0.000000 1.000000
outer loop
vertex 11.838678 -9.353609 3.000000
vertex 13.500000 -9.500000 3.000000
vertex 13.959723 -5.394034 3.000000
endloop
endfacet
facet normal 0.000000 -0.000000 1.000000
outer loop
vertex 15.109529 -9.362660 3.000000
vertex 15.148505 -6.298094 3.000000
vertex 13.500000 -9.500000 3.000000
endloop
endfacet
facet normal -0.000000 -0.000000 1.000000
outer loop
vertex 13.959723 -5.394034 3.000000
vertex 13.500000 -9.500000 3.000000
vertex 15.148505 -6.298094 3.000000
endloop
endfacet
facet normal 0.000000 -0.000000 1.000000
outer loop
vertex 16.525093 -6.955203 3.000000
vertex 15.148505 -6.298094 3.000000
vertex 15.109529 -9.362660 3.000000
endloop
endfacet
facet normal -0.000000 -0.000000 1.000000
outer loop
vertex 11.838678 -9.353609 3.000000
vertex 13.959723 -5.394034 3.000000
vertex 12.977223 -4.269211 3.000000
endloop
endfacet
facet normal -0.000000 -0.000000 1.000000
outer loop
vertex 12.681006 9.464631 3.000000
vertex 10.985728 9.161246 3.000000
vertex 13.959723 5.394034 3.000000
endloop
endfacet
facet normal 0.000000 -0.000000 1.000000
outer loop
vertex 12.977223 4.269211 3.000000
vertex 9.252008 8.497327 3.000000
vertex 12.228390 2.940289 3.000000
endloop
endfacet
facet normal 0.000000 -0.000000 1.000000
outer loop
vertex 12.228390 2.940289 3.000000
vertex 6.304137 6.202384 3.000000
vertex 11.768659 1.485836 3.000000
endloop
endfacet
facet normal 0.000000 -0.000000 1.000000
outer loop
vertex 11.768659 1.485836 3.000000
vertex 4.486619 3.001495 3.000000
vertex 11.617588 -0.000000 3.000000
endloop
endfacet
facet normal -0.000000 -0.000000 1.000000
outer loop
vertex 9.252008 8.497327 3.000000
vertex 7.672318 7.502542 3.000000
vertex 12.228390 2.940289 3.000000
endloop
endfacet
facet normal 0.000000 -0.000000 1.000000
outer loop
vertex 10.985728 9.161246 3.000000
vertex 9.252008 8.497327 3.000000
vertex 12.977223 4.269211 3.000000
endloop
endfacet
facet normal 0.000000 -0.000000 1.000000
outer loop
vertex 6.304137 6.202384 3.000000
vertex 5.226755 4.669414 3.000000
vertex 11.768659 1.485836 3.000000
endloop
endfacet
facet normal 0.000000 -0.000000 1.000000
outer loop
vertex 11.617588 -0.000000 3.000000
vertex 4.486619 3.001495 3.000000
vertex 4.089555 1.301353 3.000000
endloop
endfacet
facet normal 0.000000 -0.000000 1.000000
outer loop
vertex 4.486619 3.001495 3.000000
vertex 11.768659 1.485836 3.000000
vertex 5.226755 4.669414 3.000000
endloop
endfacet
facet normal 0.000000 0.000000 1.000000
outer loop
vertex 7.672318 7.502542 3.000000
vertex 6.304137 6.202384 3.000000
vertex 12.228390 2.940289 3.000000
endloop
endfacet
facet normal 0.000000 0.000000 1.000000
outer loop
vertex 4.007740 -0.383409 3.000000
vertex 11.617588 -0.000000 3.000000
vertex 4.089555 1.301353 3.000000
endloop
endfacet
facet normal 0.000000 0.000000 1.000000
outer loop
vertex 6.998243 -6.926555 3.000000
vertex 8.489290 -8.071108 3.000000
vertex 12.228390 -2.940289 3.000000
endloop
endfacet
facet normal -0.000000 -0.000000 1.000000
outer loop
vertex 12.977223 -4.269211 3.000000
vertex 10.137218 -8.884913 3.000000
vertex 11.838678 -9.353609 3.000000
endloop
endfacet
facet normal 0.000000 -0.000000 1.000000
outer loop
vertex 8.489290 -8.071108 3.000000
vertex 10.137218 -8.884913 3.000000
vertex 12.228390 -2.940289 3.000000
endloop
endfacet
facet normal -0.000000 -0.000000 1.000000
outer loop
vertex 6.998243 -6.926555 3.000000
vertex 12.228390 -2.940289 3.000000
vertex 11.768659 -1.485836 3.000000
endloop
endfacet
facet normal -0.000000 -0.000000 1.000000
outer loop
vertex 12.228390 -2.940289 3.000000
vertex 10.137218 -8.884913 3.000000
vertex 12.977223 -4.269211 3.000000
endloop
endfacet
facet normal -0.000000 -0.000000 1.000000
outer loop
vertex 11.617588 -0.000000 3.000000
vertex 4.830475 -3.884501 3.000000
vertex 11.768659 -1.485836 3.000000
endloop
endfacet
facet normal 0.000000 -0.000000 1.000000
outer loop
vertex 11.768659 -1.485836 3.000000
vertex 5.758315 -5.506025 3.000000
vertex 6.998243 -6.926555 3.000000
endloop
endfacet
facet normal 0.000000 -0.000000 1.000000
outer loop
vertex 5.758315 -5.506025 3.000000
vertex 11.768659 -1.485836 3.000000
vertex 4.830475 -3.884501 3.000000
endloop
endfacet
facet normal 0.000000 -0.000000 1.000000
outer loop
vertex 4.244394 -2.140972 3.000000
vertex 4.830475 -3.884501 3.000000
vertex 11.617588 -0.000000 3.000000
endloop
endfacet
facet normal 0.000000 0.000000 1.000000
outer loop
vertex 4.244394 -2.140972 3.000000
vertex 11.617588 -0.000000 3.000000
vertex 4.007740 -0.383409 3.000000
endloop
endfacet
facet normal 0.000000 0.000000 -1.000000
outer loop
vertex 7.875000 -4.750000 -0.000000
vertex 7.875000 -2.375000 -0.000000
vertex 9.812500 -2.375000 -0.000000
endloop
endfacet
facet normal 0.000000 0.000000 -1.000000
outer loop
vertex 7.875000 -4.750000 -0.000000
vertex 9.812500 -2.375000 -0.000000
vertex 9.812500 -4.750000 -0.000000
endloop
endfacet
facet normal 0.000000 0.000000 -1.000000
outer loop
vertex 9.812500 -2.375000 -0.000000
vertex 11.750000 -4.750000 -0.000000
vertex 9.812500 -4.750000 -0.000000
endloop
endfacet
facet normal -0.000000 0.000000 -1.000000
outer loop
vertex 7.875000 -2.375000 -0.000000
vertex 7.875000 -0.000000 -0.000000
vertex 9.812500 -0.000000 -0.000000
endloop
endfacet
facet normal 0.000000 0.000000 -1.000000
outer loop
vertex 7.875000 -2.375000 -0.000000
vertex 9.812500 -0.000000 -0.000000
vertex 9.812500 -2.375000 -0.000000
endloop
endfacet
facet normal 0.000000 0.000000 -1.000000
outer loop
vertex 17.364584 7.198987 0.000000
vertex 16.256222 9.091383 0.000000
vertex 17.987968 8.373060 0.000000
endloop
endfacet
facet normal -0.000000 0.000000 -1.000000
outer loop
vertex 17.987968 8.373060 0.000000
vertex 19.500000 7.365460 0.000000
vertex 17.364584 7.198987 0.000000
endloop
endfacet
facet normal -0.000000 0.000000 -1.000000
outer loop
vertex 16.256222 9.091383 0.000000
vertex 17.364584 7.198987 0.000000
vertex 15.500000 6.500000 0.000000
endloop
endfacet
facet normal 0.000000 0.000000 -1.000000
outer loop
vertex 15.500000 6.500000 0.000000
vertex 14.486067 9.448687 0.000000
vertex 16.256222 9.091383 0.000000
endloop
endfacet
facet normal 0.000000 0.000000 -1.000000
outer loop
vertex 14.375671 5.754614 0.000000
vertex 12.681006 9.464631 0.000000
vertex 14.486067 9.448687 0.000000
endloop
endfacet
facet normal -0.000000 0.000000 -1.000000
outer loop
vertex 13.353126 4.755292 0.000000
vertex 12.681006 9.464631 0.000000
vertex 14.375671 5.754614 0.000000
endloop
endfacet
facet normal 0.000000 0.000000 -1.000000
outer loop
vertex 15.500000 6.500000 0.000000
vertex 14.375671 5.754614 0.000000
vertex 14.486067 9.448687 0.000000
endloop
endfacet
facet normal -0.000000 0.000000 -1.000000
outer loop
vertex 13.353126 4.755292 0.000000
vertex 12.513652 3.525237 0.000000
vertex 10.985728 9.161246 0.000000
endloop
endfacet
facet normal -0.000000 0.000000 -1.000000
outer loop
vertex 12.513652 3.525237 0.000000
vertex 11.928932 2.121320 0.000000
vertex 7.672318 7.502542 0.000000
endloop
endfacet
facet normal 0.000000 0.000000 -1.000000
outer loop
vertex 12.681006 9.464631 0.000000
vertex 13.353126 4.755292 0.000000
vertex 10.985728 9.161246 0.000000
endloop
endfacet
facet normal -0.000000 0.000000 -1.000000
outer loop
vertex 16.642799 -8.965089 -0.000000
vertex 15.312278 -6.395366 -0.000000
vertex 17.344133 -7.194311 -0.000000
endloop
endfacet
facet normal 0.000000 0.000000 -1.000000
outer loop
vertex 19.500000 -7.365460 -0.000000
vertex 18.123537 -8.298970 -0.000000
vertex 17.344133 -7.194311 -0.000000
endloop
endfacet
facet normal 0.000000 0.000000 -1.000000
outer loop
vertex 16.642799 -8.965089 -0.000000
vertex 17.344133 -7.194311 -0.000000
vertex 18.123537 -8.298970 -0.000000
endloop
endfacet
facet normal 0.000000 0.000000 -1.000000
outer loop
vertex 16.642799 -8.965089 -0.000000
vertex 15.109529 -9.362660 -0.000000
vertex 15.312278 -6.395366 -0.000000
endloop
endfacet
facet normal 0.000000 0.000000 -1.000000
outer loop
vertex 12.500000 -3.500000 -0.000000
vertex 13.652781 -5.089916 -0.000000
vertex 11.750000 -4.750000 -0.000000
endloop
endfacet
facet normal 0.000000 0.000000 -1.000000
outer loop
vertex 11.750000 -4.750000 -0.000000
vertex 13.652781 -5.089916 -0.000000
vertex 11.838678 -9.353609 -0.000000
endloop
endfacet
facet normal -0.000000 0.000000 -1.000000
outer loop
vertex 15.312278 -6.395366 -0.000000
vertex 15.109529 -9.362660 -0.000000
vertex 13.500000 -9.500000 -0.000000
endloop
endfacet
facet normal 0.000000 0.000000 -1.000000
outer loop
vertex 11.838678 -9.353609 -0.000000
vertex 13.652781 -5.089916 -0.000000
vertex 13.500000 -9.500000 -0.000000
endloop
endfacet
facet normal 0.000000 0.000000 -1.000000
outer loop
vertex 11.971644 -2.258809 -0.000000
vertex 12.500000 -3.500000 -0.000000
vertex 11.750000 -4.750000 -0.000000
endloop
endfacet
facet normal 0.000000 0.000000 -1.000000
outer loop
vertex 13.652781 -5.089916 -0.000000
vertex 15.312278 -6.395366 -0.000000
vertex 13.500000 -9.500000 -0.000000
endloop
endfacet
facet normal 0.000000 0.000000 -1.000000
outer loop
vertex 9.252008 8.497327 0.000000
vertex 12.513652 3.525237 0.000000
vertex 7.672318 7.502542 0.000000
endloop
endfacet
facet normal -0.000000 0.000000 -1.000000
outer loop
vertex 11.644295 0.627379 0.000000
vertex 9.812500 -0.000000 -0.000000
vertex 11.928932 2.121320 0.000000
endloop
endfacet
facet normal 0.000000 0.000000 -1.000000
outer loop
vertex 6.981482 6.910783 0.000000
vertex 9.812500 -0.000000 -0.000000
vertex 7.875000 -0.000000 -0.000000
endloop
endfacet
facet normal 0.000000 0.000000 -1.000000
outer loop
vertex 11.668044 -0.861643 -0.000000
vertex 9.812500 -0.000000 -0.000000
vertex 11.644295 0.627379 0.000000
endloop
endfacet
facet normal 0.000000 0.000000 -1.000000
outer loop
vertex 11.928932 2.121320 0.000000
vertex 6.981482 6.910783 0.000000
vertex 7.672318 7.502542 0.000000
endloop
endfacet
facet normal 0.000000 0.000000 -1.000000
outer loop
vertex 10.985728 9.161246 0.000000
vertex 12.513652 3.525237 0.000000
vertex 9.252008 8.497327 0.000000
endloop
endfacet
facet normal 0.000000 0.000000 -1.000000
outer loop
vertex 7.875000 -0.000000 -0.000000
vertex 5.663179 5.369752 0.000000
vertex 6.981482 6.910783 0.000000
endloop
endfacet
facet normal 0.000000 0.000000 -1.000000
outer loop
vertex 7.875000 -0.000000 -0.000000
vertex 4.716908 3.620401 0.000000
vertex 5.663179 5.369752 0.000000
endloop
endfacet
facet normal 0.000000 0.000000 -1.000000
outer loop
vertex 7.875000 -0.000000 -0.000000
vertex 4.000000 0.000000 0.000000
vertex 4.170328 1.790872 0.000000
endloop
endfacet
facet normal 0.000000 0.000000 -1.000000
outer loop
vertex 4.170328 1.790872 0.000000
vertex 4.716908 3.620401 0.000000
vertex 7.875000 -0.000000 -0.000000
endloop
endfacet
facet normal 0.000000 0.000000 -1.000000
outer loop
vertex 6.981482 6.910783 0.000000
vertex 11.928932 2.121320 0.000000
vertex 9.812500 -0.000000 -0.000000
endloop
endfacet
facet normal -0.000000 0.000000 -1.000000
outer loop
vertex 4.170328 -1.790872 -0.000000
vertex 4.000000 0.000000 0.000000
vertex 7.875000 -0.000000 -0.000000
endloop
endfacet
facet normal -0.000000 0.000000 -1.000000
outer loop
vertex 11.750000 -4.750000 -0.000000
vertex 9.812500 -2.375000 -0.000000
vertex 11.971644 -2.258809 -0.000000
endloop
endfacet
facet normal 0.000000 0.000000 -1.000000
outer loop
vertex 9.812500 -2.375000 -0.000000
vertex 11.668044 -0.861643 -0.000000
vertex 11.971644 -2.258809 -0.000000
endloop
endfacet
facet normal -0.000000 0.000000 -1.000000
outer loop
vertex 9.812500 -2.375000 -0.000000
vertex 9.812500 -0.000000 -0.000000
vertex 11.668044 -0.861643 -0.000000
endloop
endfacet
facet normal 0.000000 0.000000 -1.000000
outer loop
vertex 8.489290 -8.071108 -0.000000
vertex 9.812500 -4.750000 -0.000000
vertex 10.137218 -8.884913 -0.000000
endloop
endfacet
facet normal 0.000000 0.000000 -1.000000
outer loop
vertex 11.750000 -4.750000 -0.000000
vertex 10.137218 -8.884913 -0.000000
vertex 9.812500 -4.750000 -0.000000
endloop
endfacet
facet normal 0.000000 0.000000 -1.000000
outer loop
vertex 9.812500 -4.750000 -0.000000
vertex 8.489290 -8.071108 -0.000000
vertex 7.875000 -4.750000 -0.000000
endloop
endfacet
facet normal -0.000000 0.000000 -1.000000
outer loop
vertex 11.838678 -9.353609 -0.000000
vertex 10.137218 -8.884913 -0.000000
vertex 11.750000 -4.750000 -0.000000
endloop
endfacet
facet normal -0.000000 0.000000 -1.000000
outer loop
vertex 4.716908 -3.620401 -0.000000
vertex 4.170328 -1.790872 -0.000000
vertex 7.875000 -2.375000 -0.000000
endloop
endfacet
facet normal 0.000000 0.000000 -1.000000
outer loop
vertex 5.663179 -5.369752 -0.000000
vertex 4.716908 -3.620401 -0.000000
vertex 7.875000 -2.375000 -0.000000
endloop
endfacet
facet normal 0.000000 0.000000 -1.000000
outer loop
vertex 6.981482 -6.910783 -0.000000
vertex 5.663179 -5.369752 -0.000000
vertex 7.875000 -4.750000 -0.000000
endloop
endfacet
facet normal -0.000000 0.000000 -1.000000
outer loop
vertex 7.875000 -2.375000 -0.000000
vertex 7.875000 -4.750000 -0.000000
vertex 5.663179 -5.369752 -0.000000
endloop
endfacet
facet normal 0.000000 0.000000 -1.000000
outer loop
vertex 8.489290 -8.071108 -0.000000
vertex 6.981482 -6.910783 -0.000000
vertex 7.875000 -4.750000 -0.000000
endloop
endfacet
facet normal 0.000000 0.000000 -1.000000
outer loop
vertex 7.875000 -2.375000 -0.000000
vertex 4.170328 -1.790872 -0.000000
vertex 7.875000 -0.000000 -0.000000
endloop
endfacet
endsolid Exported from Blender-3.1.2
